<?xml version="1.0" encoding="UTF-8" standalone="no"?><!DOCTYPE svg PUBLIC "-//W3C//DTD SVG 1.1//EN" "http://www.w3.org/Graphics/SVG/1.1/DTD/svg11.dtd"><svg width="100%" height="100%" viewBox="0 0 954 304" version="1.1" xmlns="http://www.w3.org/2000/svg" xmlns:xlink="http://www.w3.org/1999/xlink" xml:space="preserve" xmlns:serif="http://www.serif.com/" style="fill-rule:evenodd;clip-rule:evenodd;stroke-linejoin:round;stroke-miterlimit:2;"><rect id="Plan-de-travail1" serif:id="Plan de travail1" x="0" y="0" width="953.56" height="303.71" style="fill:none;"/><g id="Plan-de-travail11" serif:id="Plan de travail1"><path d="M785.69,166.81l16.26,16.26l128.61,-128.61l-0,226.25l-257,0l-0,-226.04l112.13,112.14Zm-135.13,-166.1l-0,303l303,-0l-0,-303l-1.77,-0l-149.84,149.83l-149.83,-149.83l-1.56,-0Zm-326.08,-0.25l-0,303l303,-0l0,-303l-303,-0Zm129.93,129.93c-13.08,13.08 -13.08,34.29 0,47.38c9.41,9.41 23.02,12.05 34.79,7.92l94.77,94.77l-236.49,-0l0,-257l257,-0l0,236.49l-94.77,-94.77c4.13,-11.77 1.48,-25.39 -7.92,-34.79c-13.09,-13.08 -34.3,-13.08 -47.38,-0Zm-247.94,-130.39l-206.47,206.48l-0,96.52l303,-0l0,-303l-96.53,-0Zm-183.47,280l0,-64l85.62,-85.62l119.87,119.87l20.51,-20.51l-119.87,-119.87l86.87,-86.87l64,-0l0,257l-257,-0Z" style="fill:rgba(0,0,0,0.5);fill-rule:nonzero;"/></g></svg>
