<?xml version="1.0" encoding="UTF-8"?>
<svg id="Calque_1" xmlns="http://www.w3.org/2000/svg" version="1.1" viewBox="0 0 33.04 9.73">
  <!-- Generator: Adobe Illustrator 29.4.0, SVG Export Plug-In . SVG Version: 2.1.0 Build 152)  -->
  <defs>
    <style>
      .st0 {
        fill: #0f5dbd;
      }
    </style>
  </defs>
  <path class="st0" d="M3.91.15L1.33,8.46H.28L2.85.15h1.06ZM4.85.15v8.31h-.94V.15h.94ZM9.43.15v8.31h-.94V.15h.94ZM8.49.15l-2.57,8.31h-1.06L7.43.15h1.06ZM26.81,8.76h6.05v.79h-6.05v-.79Z"/>
  <path d="M18.21,6.72h-1.54v-.5h.34v-1.43c0-.33-.06-.57-.19-.71-.13-.14-.3-.21-.51-.21-.29,0-.51.1-.65.31s-.22.42-.23.62v1.41h.54v.5h-1.54v-.5h.34v-1.42c0-.34-.06-.58-.19-.71-.13-.14-.3-.21-.51-.21-.29,0-.5.1-.65.3-.14.2-.22.41-.23.62v1.43h.62v.5h-1.82v-.5h.54v-2.28h-.55v-.51h1.21v.58c.11-.19.24-.34.42-.47.18-.12.4-.18.66-.18s.48.06.68.19c.2.13.33.32.41.58.1-.23.24-.41.44-.55s.43-.22.71-.22c.32,0,.59.1.8.3s.33.51.33.92v1.64h.55v.5h0ZM22.04,6.72h-1.19v-.65c-.11.2-.25.37-.44.51-.19.14-.43.22-.75.22-.43,0-.79-.14-1.05-.44-.26-.29-.39-.69-.39-1.2,0-.45.12-.87.36-1.24.23-.37.62-.56,1.15-.56s.88.2,1.11.59v-1.78h-.78v-.51h1.43v4.57h.54v.5ZM20.84,5.2v-.4c0-.27-.11-.5-.29-.66s-.4-.25-.65-.25c-.32,0-.57.12-.74.35-.17.23-.25.52-.25.87,0,.37.09.66.27.86.18.2.41.3.67.3.29,0,.52-.12.7-.34.19-.23.28-.48.29-.72ZM26.12,6.72h-1.74v-.5h.54v-1.43c0-.33-.06-.57-.2-.71-.13-.14-.31-.21-.51-.21-.28,0-.51.09-.67.27-.16.18-.25.4-.26.63v1.43h.54v.5h-1.74v-.5h.54v-2.27h-.56v-.51h1.23v.56c.23-.42.61-.62,1.15-.62.32,0,.6.1.83.3s.33.51.33.92v1.64h.54v.49h-.02Z"/>
</svg>