<svg clip-rule="evenodd" fill-rule="evenodd" stroke-linejoin="round" stroke-miterlimit="2" viewBox="0 0 163 159" xmlns="http://www.w3.org/2000/svg"><path d="m0 0h162.5v158.333h-162.5z" fill="none"/><g fill="#000"><path d="m156.419 81.249c0 41.417-34.667 75-77.428 75-42.767 0-77.433-33.583-77.433-75 0-41.422 34.666-75.005 77.433-75.005 42.761 0 77.428 33.583 77.428 75.005" fill-opacity=".27" fill-rule="nonzero"/><path d="m150.897 124.789c2.674 1.974 6.302 4.307 6.302 4.307l1.212.934s2.451 1.917 2.667 2.158c.579.648-1.098 2.626-1.713 2.351-.1-.045-.567-.355-1.635-1.112l-3.032 4.225-1.231-1.275s-5.725-5.967-8.755-7.632c-1.566-.864-3.695-.856-5.412-.416-1.018.261-1.907.65-2.349 1.197-.405.498-.596 1.185-.897 1.694-.438.743-1.017 1.26-1.81 1.457-.643.16-1.529.12-2.756-.524-1.223-.642-3.007-2.002-5.654-4.52-8.401-7.987-28.111-23.048-39.702-47.647-7.655-16.249-10.364-28.808-11.839-35.18-.197-.853-.424-1.691-.617-2.364-.405 1.291-1.029 3.295-1.805 5.82-4.527 14.751-11.193 27.785-20.342 42.25-15.282 24.182-48.518 41.106-48.518 41.106l-1.709-2.368s34.12-33.718 46.199-59.134c5.258-11.067 9.247-17.772 11.732-22.53 1.544-2.956 2.497-5.094 2.729-7.106.649-5.566.61-6.316 1.713-10.21.446-1.573 1.043-2.611 1.522-3.533.489-.942.781-1.715.222-3.302-.762-2.172-1.02-5.232-1.697-7.616-.311-1.095-.617-2.065-1.381-2.425-1.378-.643-2.758-1.135-3.996-1.744-1.452-.715-2.719-1.591-3.66-2.897-.835-1.15-1.556-2.081-1.93-2.761-.286-.52-.414-.974-.433-1.329-.024-.447.087-.827.295-1.152.242-.38.645-.738 1.356-.897.786-.177 7.868-1.796 15.229 1.679 4.861 2.296 9.881 6.802 13.219 15.5 7.848 20.443 30.057 76.628 68.476 104.996z"/></g></svg>