<?xml version="1.0" encoding="UTF-8"?>
<svg id="logosandtypes_com" data-name="logosandtypes com" xmlns="http://www.w3.org/2000/svg" viewBox="0 0 150 150">
  <defs>
    <style>
      .cls-1 {
        fill: none;
      }

      .cls-2 {
        fill: #294339;
      }
    </style>
  </defs>
  <path class="cls-1" d="M0,0H150V150H0V0Z"/>
  <g>
    <path class="cls-2" d="M114.35,132.25c-3.87-6.61-7.72-13.2-11.69-19.97-8.87,7.4-17.7,14.57-27.97,20.01C40.71,112.36,13.15,80.35,1.87,42.3c-.49-1.75-1.12-3.53-.57-5.36,1.83-1.5,2.64-1.38,3.69,.6,2.02,3.79,3.98,7.61,6.01,11.4,4.59,8.36,10,16.19,16.62,23.08-.05-8.47-1.49-16.72,.26-24.77,2.35-1.56,3.71-.88,3.98,1.76,.81,7.81,2.1,15.54,4.53,23.03,.6,1.85,1.14,3.76,2.64,5.53,12.13-20.44,23.62-41.02,35.78-61.61,9.45,16.36,18.81,32.54,28.24,48.87-5.24,6.51-11.17,12.08-17.59,17.52-3.54-6.03-6.97-11.88-10.6-18.07-6.38,10.33-12.03,20.69-18.13,30.94,5.72,4.67,11.7,8.68,18.11,12.5,10.8-6.24,20.66-14,29.74-22.52,2.98-2.8,5.86-5.74,7.66-9.51,1.57-3.28,2.39-6.81,3.24-10.32,1.25-5.1,2.21-10.26,2.57-15.52,.15-1.53,.33-3.5,2.32-3.48,1.05-.03,1.73,.51,1.93,1.47,.26,1.2,.51,2.43,.5,3.64-.03,6.99-.31,13.5-.27,20.57,9.64-10.44,16.66-22.42,22.85-35.08,.45-.79,1.08-1.2,2.03-.96,.98,.26,1.55,.87,1.57,1.88-1.13,8.33-4.68,16.1-8.15,23.68-5.53,11.8-12.39,22.71-20.68,32.79,7.19,12.55,14.39,25.12,21.7,37.89h-27.52Z"/>
    <path class="cls-2" d="M7.81,132.23c4.82-8.36,9.54-16.56,14.2-24.65,6.05,5.47,11.96,10.82,18.12,16.39-1.5,2.61-3.11,5.41-4.75,8.27H7.81Z"/>
  </g>
</svg>