<?xml version="1.0" encoding="UTF-8" standalone="no"?>
<svg
   xmlns:dc="http://purl.org/dc/elements/1.1/"
   xmlns:cc="http://creativecommons.org/ns#"
   xmlns:rdf="http://www.w3.org/1999/02/22-rdf-syntax-ns#"
   xmlns:svg="http://www.w3.org/2000/svg"
   xmlns="http://www.w3.org/2000/svg"
   xmlns:sodipodi="http://sodipodi.sourceforge.net/DTD/sodipodi-0.dtd"
   xmlns:inkscape="http://www.inkscape.org/namespaces/inkscape"
   viewBox="0 0 1000 500"
   aria-labelledby="title"
   aria-describedby="desc"
   role="img"
   version="1.1"
   id="svg10"
   sodipodi:docname="contact-form-7-banner.svg"
   inkscape:version="0.92.4 (5da689c313, 2019-01-14)"
   width="1000"
   height="500">
  <metadata
     id="metadata16">
    <rdf:RDF>
      <cc:Work
         rdf:about="">
        <dc:format>image/svg+xml</dc:format>
        <dc:type
           rdf:resource="http://purl.org/dc/dcmitype/StillImage" />
        <dc:title>Ticket</dc:title>
      </cc:Work>
    </rdf:RDF>
  </metadata>
  <defs
     id="defs14" />
  <sodipodi:namedview
     pagecolor="#ffffff"
     bordercolor="#666666"
     borderopacity="1"
     objecttolerance="10"
     gridtolerance="10"
     guidetolerance="10"
     inkscape:pageopacity="0"
     inkscape:pageshadow="2"
     inkscape:window-width="1920"
     inkscape:window-height="1012"
     id="namedview12"
     showgrid="false"
     inkscape:zoom="2"
     inkscape:cx="218.26049"
     inkscape:cy="324.03884"
     inkscape:window-x="-8"
     inkscape:window-y="-8"
     inkscape:window-maximized="1"
     inkscape:current-layer="svg10"
     showguides="true"
     inkscape:guide-bbox="true"
     inkscape:measure-start="25.1142,38.8047"
     inkscape:measure-end="25.1142,42.6253"
     inkscape:lockguides="false">
    <sodipodi:guide
       position="500,-0.07421875"
       orientation="1,0"
       id="guide4668"
       inkscape:locked="false" />
    <sodipodi:guide
       position="1000.2539,250.00781"
       orientation="0,1"
       id="guide4670"
       inkscape:locked="false" />
  </sodipodi:namedview>
  <title
     id="title2">Ticket</title>
  <desc
     id="desc4">A line styled icon from Orion Icon Library.</desc>
  <rect
     style="opacity:1;fill:#ffffff;fill-opacity:1;fill-rule:evenodd;stroke:none;stroke-width:1.99937022;stroke-linecap:square;stroke-linejoin:miter;stroke-miterlimit:10;stroke-dasharray:none;stroke-dashoffset:0;stroke-opacity:1;paint-order:normal"
     id="rect4658"
     width="1000"
     height="500"
     x="0"
     y="-5.9999998e-008"
     inkscape:export-xdpi="96"
     inkscape:export-ydpi="96" />
  <g
     id="g4610"
     transform="matrix(7.3781627,0,0,7.3781627,137.9422,-100.12763)"
     style="stroke-width:0.13553509"
     inkscape:export-xdpi="96"
     inkscape:export-ydpi="96" />
  <g
     id="g883"
     transform="translate(69.499995)">
    <g
       inkscape:export-ydpi="109.09091"
       inkscape:export-xdpi="109.09091"
       style="clip-rule:evenodd;fill-rule:evenodd;stroke-width:0.9539324;stroke-linejoin:round;stroke-miterlimit:1.41420996"
       id="g1138"
       transform="matrix(1.0482923,0,0,1.0482923,-549.86271,717.0226)">
      <path
         inkscape:connector-curvature="0"
         id="rect1077-2"
         d="m 1001.8028,-607.67651 -33.252,95.13672 123.0254,-0.15625 -83.8652,229.35547 h 101.4356 l 84.0566,-229.27148 -66.6406,-94.90821 z"
         style="clip-rule:evenodd;opacity:1;fill:#4668ff;fill-opacity:1;fill-rule:nonzero;stroke:none;stroke-width:6.67752695;stroke-linecap:round;stroke-linejoin:round;stroke-miterlimit:1.41420996;stroke-dasharray:none;stroke-opacity:1;paint-order:normal" />
      <path
         style="opacity:1;fill:#001fa4;fill-opacity:1;fill-rule:nonzero;stroke:none;stroke-width:6.67752695;stroke-linecap:round;stroke-linejoin:round;stroke-miterlimit:1.41420996;stroke-dasharray:none;stroke-opacity:1;paint-order:normal"
         d="m 1001.8019,-607.67645 124.76,0.15759 -34.9857,94.82282 -123.02646,0.15759 z"
         id="rect1077"
         inkscape:connector-curvature="0"
         sodipodi:nodetypes="ccccc" />
      <path
         style="clip-rule:evenodd;opacity:1;fill:#4668ff;fill-opacity:1;fill-rule:nonzero;stroke:none;stroke-width:6.67752695;stroke-linecap:round;stroke-linejoin:round;stroke-miterlimit:1.41420996;stroke-dasharray:none;stroke-opacity:1;paint-order:normal"
         d="m 1091.5762,-512.69604 34.9857,-94.82282 66.6398,94.90721 -84.0558,229.27217 h -101.4362 z"
         id="rect1077-0"
         inkscape:connector-curvature="0"
         sodipodi:nodetypes="cccccc" />
    </g>
    <g
       id="text914"
       style="font-style:normal;font-variant:normal;font-weight:normal;font-stretch:normal;font-size:74.66666412px;line-height:1.25;font-family:Nunito;-inkscape-font-specification:Nunito;letter-spacing:0px;word-spacing:0px;clip-rule:evenodd;fill:#000000;fill-opacity:1;fill-rule:evenodd;stroke:none;stroke-width:0.9539324;stroke-linejoin:round;stroke-miterlimit:1.41420996"
       aria-label="CONTACT"
       transform="matrix(1.0482923,0,0,1.0482923,-549.86271,717.0226)">
      <path
         sodipodi:nodetypes="ccccccccccc"
         inkscape:connector-curvature="0"
         id="path952"
         style="font-style:normal;font-variant:normal;font-weight:normal;font-stretch:normal;font-family:'Lucida Sans Unicode';-inkscape-font-specification:'Lucida Sans Unicode';opacity:1;stroke-width:0.9539324"
         d="m 794.95276,-414.355 v -53.95834 h 8.09565 l 27.16146,41.67188 v -41.67188 h 7.14791 v 53.95834 h -8.05937 l -27.19791,-41.67188 v 41.67188 z" />
      <path
         sodipodi:nodetypes="ccccccccc"
         inkscape:connector-curvature="0"
         id="path954"
         style="font-style:normal;font-variant:normal;font-weight:normal;font-stretch:normal;font-family:'Lucida Sans Unicode';-inkscape-font-specification:'Lucida Sans Unicode';opacity:1;stroke-width:0.9539324"
         d="m 865.19601,-414.455 v -48.23438 h -13.14062 v -5.72396 h 33.9375 v 5.72396 h -13.14063 v 48.23438 z" />
      <path
         sodipodi:nodetypes="cccccccccccc"
         inkscape:connector-curvature="0"
         id="path956"
         style="font-style:normal;font-variant:normal;font-weight:normal;font-stretch:normal;font-family:'Lucida Sans Unicode';-inkscape-font-specification:'Lucida Sans Unicode';opacity:1;fill:#000000;fill-opacity:1;stroke-width:0.9539324"
         d="m 892.53205,-414.48485 c 5.13115,-12.19686 21.82325,-53.82849 21.82325,-53.82849 0,0 16.24374,39.66622 22.07075,53.82849 h -8.19376 l -2.87657,-6.64515 h -21.93863 l -3.05122,6.64515 z m 14.16911,-14.55629 15.30971,-0.0279 -7.69497,-20.48064 z" />
      <path
         sodipodi:nodetypes="ccccccccc"
         inkscape:connector-curvature="0"
         id="path954-9"
         style="font-style:normal;font-variant:normal;font-weight:normal;font-stretch:normal;font-size:74.66666412px;line-height:1.25;font-family:'Lucida Sans Unicode';-inkscape-font-specification:'Lucida Sans Unicode';letter-spacing:0px;word-spacing:0px;clip-rule:evenodd;fill:#000000;fill-opacity:1;fill-rule:evenodd;stroke:none;stroke-width:0.9539324;stroke-linejoin:round;stroke-miterlimit:1.41420996"
         d="m 1016.0265,-413.52435 v -48.23438 h -13.1406 v -5.72396 h 33.9375 v 5.72396 h -13.1406 v 48.23438 z" />
      <path
         sodipodi:nodetypes="cscscsccssssscc"
         inkscape:connector-curvature="0"
         id="path958-5"
         style="font-style:normal;font-variant:normal;font-weight:normal;font-stretch:normal;font-size:74.66666412px;line-height:1.25;font-family:'Lucida Sans Unicode';-inkscape-font-specification:'Lucida Sans Unicode';letter-spacing:0px;word-spacing:0px;clip-rule:evenodd;opacity:1;fill:#000000;fill-opacity:1;fill-rule:evenodd;stroke:none;stroke-width:0.9539324;stroke-linejoin:round;stroke-miterlimit:1.41420996"
         d="m 720.81492,-420.82334 c -4.30497,3.86774 -11.99771,6.35319 -18.11404,6.35319 -8.14723,0 -14.44068,-2.33015 -18.88034,-6.99045 -4.43966,-4.66029 -6.65949,-11.28159 -6.65949,-19.86392 0,-8.55925 2.25525,-15.18056 6.76575,-19.86392 4.53412,-4.70644 10.92203,-7.05966 19.16372,-7.05966 4.67581,0 14.81534,2.48332 17.81114,8.39553 l -5.20057,3.90194 c -2.05724,-4.78633 -8.54056,-5.68236 -12.43706,-5.68236 -5.69127,0 -10.41069,0.69832 -13.52789,4.45885 -3.1172,3.76054 -4.6758,9.06682 -4.6758,15.91883 0,6.55209 1.66487,11.70841 4.99461,15.46895 3.32973,3.76054 7.80866,4.61645 13.59439,4.61645 4.93557,0 8.97644,-1.40927 11.80741,-5.56736 z" />
      <path
         sodipodi:nodetypes="cscscsccssssscc"
         inkscape:connector-curvature="0"
         id="path958-5-5"
         style="font-style:normal;font-variant:normal;font-weight:normal;font-stretch:normal;font-size:74.66666412px;line-height:1.25;font-family:'Lucida Sans Unicode';-inkscape-font-specification:'Lucida Sans Unicode';letter-spacing:0px;word-spacing:0px;clip-rule:evenodd;opacity:1;fill:#000000;fill-opacity:1;fill-rule:evenodd;stroke:none;stroke-width:0.9539324;stroke-linejoin:round;stroke-miterlimit:1.41420996"
         d="m 991.29646,-420.87019 c -4.30497,3.86774 -11.99771,6.35319 -18.11404,6.35319 -8.14723,0 -14.44068,-2.33015 -18.88034,-6.99045 -4.43966,-4.66029 -6.65949,-11.28159 -6.65949,-19.86392 0,-8.55925 2.25525,-15.18056 6.76575,-19.86392 4.53412,-4.70644 10.92203,-7.05966 19.16372,-7.05966 4.67581,0 14.81534,2.48332 17.81114,8.39553 l -5.20057,3.90194 c -2.05724,-4.78633 -8.54056,-5.68236 -12.43706,-5.68236 -5.69127,0 -10.41069,0.69832 -13.52789,4.45885 -3.1172,3.76054 -4.6758,9.06682 -4.6758,15.91883 0,6.55209 1.66487,11.70841 4.99461,15.46895 3.32973,3.76054 7.80866,4.61645 13.59439,4.61645 4.93557,0 8.97644,-1.40927 11.80741,-5.56736 z" />
    </g>
    <g
       transform="matrix(1.0482923,0,0,1.0482923,-501.29284,728.2564)"
       id="text922"
       style="font-style:normal;font-variant:normal;font-weight:normal;font-stretch:normal;font-size:74.66666412px;line-height:1.25;font-family:Nunito;-inkscape-font-specification:Nunito;letter-spacing:0px;word-spacing:0px;clip-rule:evenodd;opacity:1;fill:#000000;fill-opacity:1;fill-rule:evenodd;stroke:none;stroke-width:0.9539324;stroke-linejoin:round;stroke-miterlimit:1.41420996"
       aria-label="FORM">
      <path
         style="fill:#000000;fill-opacity:1;stroke-width:0.9539324"
         sodipodi:nodetypes="ccccccccccc"
         inkscape:connector-curvature="0"
         id="path963"
         d="m 765.63114,-382.65812 h -27.45312 v 15.3125 h 23.58854 v 6.41667 h -23.58854 v 24.14062 h -7.21875 v -52.28645 h 34.67187 z" />
      <path
         sodipodi:nodetypes="cccscccscccccccccccccscccsccsc"
         style="opacity:1;fill:#000000;fill-opacity:1;stroke-width:0.9539324"
         inkscape:connector-curvature="0"
         id="path967"
         d="m 849.54805,-365.41833 -11.04343,-15.36605 v -8.2904 h 14.45537 c 3.16145,0 5.796,0.21875 7.90364,0.65625 2.10763,0.41319 4.00451,1.16666 5.69061,2.26041 1.89688,1.23959 3.37222,2.8073 4.42604,4.70313 1.07723,1.87153 1.61585,4.25347 1.61585,7.14583 0,3.91319 -0.94844,7.19444 -2.84531,9.84375 -1.89688,2.625 -5.06517,3.6587 -8.39056,4.99551 l 14.57471,22.79301 h -7.85763 L 853.45633,-359.659 h -8.18897 v 22.87067 l -6.76274,3.6e-4 v -28.63036 h 6.7625 z m 9.71327,0.39002 c 2.62694,-0.83585 4.28818,-1.17997 5.29067,-3.70272 0.51519,-1.33681 0.77279,-3.02604 0.77279,-5.06771 0,-1.55555 -0.2693,-2.92882 -0.80792,-4.11979 -0.5152,-1.21528 -1.38167,-2.23611 -2.59942,-3.0625 -1.00698,-0.70486 -2.2013,-1.19097 -3.58298,-1.45834 -1.38167,-0.29167 -3.00924,-0.4375 -4.88269,-0.4375 h -6.07415 c 0.0334,2.79881 0,3.39173 0,3.39173 0,0 8.47874,13.50808 9.12562,14.06681 0.90983,0.78584 2.75808,0.39002 2.75808,0.39002 z" />
      <path
         sodipodi:nodetypes="cccccccccccccc"
         style="opacity:1;fill:#000000;fill-opacity:1;stroke-width:0.9539324"
         inkscape:connector-curvature="0"
         id="path969"
         d="m 949.26323,-336.78833 h -7.45196 v -38.88333 l -17.74965,38.89622 -6.57793,0.0394 -18.79441,-38.93562 v 38.88333 h -7.55961 v -52.28645 h 9.44653 l 20.31182,42.54508 19.40216,-42.54508 h 8.97305 z" />
    </g>
    <path
       inkscape:connector-curvature="0"
       id="rect1046"
       d="m 223.81379,274.57776 h 38.50598 v 7.94353 h -38.50598 z"
       style="clip-rule:evenodd;opacity:1;fill:#000000;fill-opacity:1;fill-rule:nonzero;stroke:none;stroke-width:53.00000381;stroke-linecap:round;stroke-linejoin:round;stroke-miterlimit:1.41420996;stroke-dasharray:none;stroke-opacity:1;paint-order:normal" />
    <path
       style="color:#000000;font-style:normal;font-variant:normal;font-weight:normal;font-stretch:normal;font-size:medium;line-height:normal;font-family:sans-serif;font-variant-ligatures:normal;font-variant-position:normal;font-variant-caps:normal;font-variant-numeric:normal;font-variant-alternates:normal;font-feature-settings:normal;text-indent:0;text-align:start;text-decoration:none;text-decoration-line:none;text-decoration-style:solid;text-decoration-color:#000000;letter-spacing:normal;word-spacing:normal;text-transform:none;writing-mode:lr-tb;direction:ltr;text-orientation:mixed;dominant-baseline:auto;baseline-shift:baseline;text-anchor:start;white-space:normal;shape-padding:0;clip-rule:evenodd;display:inline;overflow:visible;visibility:visible;opacity:1;isolation:auto;mix-blend-mode:normal;color-interpolation:sRGB;color-interpolation-filters:linearRGB;solid-color:#000000;solid-opacity:1;vector-effect:none;fill:#000000;fill-opacity:1;fill-rule:nonzero;stroke:none;stroke-width:5.99999952;stroke-linecap:round;stroke-linejoin:round;stroke-miterlimit:1.41420996;stroke-dasharray:none;stroke-dashoffset:0;stroke-opacity:1;paint-order:normal;color-rendering:auto;image-rendering:auto;shape-rendering:auto;text-rendering:auto;enable-background:accumulate"
       d="m 242.67188,226.72461 c -10.50293,0.22028 -18.9203,8.93915 -18.77344,19.44336 0.14685,10.50421 8.80556,18.98358 19.31054,18.91015 10.50499,-0.0734 19.04493,-8.67444 19.04493,-19.17968 a 3.0002998,3.0002998 0 0 0 -0.01,-0.26758 3.0002998,3.0002998 0 0 0 0.002,-0.26758 c -0.29369,-10.50113 -9.07129,-18.85895 -19.57421,-18.63867 z m 0.12695,5.99805 c 7.27582,-0.1526 13.24576,5.53401 13.44922,12.80859 a 3.0002998,3.0002998 0 0 0 0.01,0.1543 3.0002998,3.0002998 0 0 0 0,0.004 3.0002998,3.0002998 0 0 0 -0.004,0.20899 c 0,7.27743 -5.81064,13.12882 -13.08789,13.17968 -7.27726,0.0509 -13.1678,-5.71742 -13.26954,-12.99414 -0.10173,-7.27671 5.62652,-13.20873 12.90235,-13.36132 z"
       id="path1051"
       inkscape:connector-curvature="0" />
    <path
       inkscape:connector-curvature="0"
       id="rect1046-3"
       d="m 318.33207,367.76285 h 38.50598 v 7.94353 h -38.50598 z"
       style="clip-rule:evenodd;opacity:1;fill:#000000;fill-opacity:1;fill-rule:nonzero;stroke:none;stroke-width:53.00000381;stroke-linecap:round;stroke-linejoin:round;stroke-miterlimit:1.41420996;stroke-dasharray:none;stroke-opacity:1;paint-order:normal" />
    <path
       style="color:#000000;font-style:normal;font-variant:normal;font-weight:normal;font-stretch:normal;font-size:medium;line-height:normal;font-family:sans-serif;font-variant-ligatures:normal;font-variant-position:normal;font-variant-caps:normal;font-variant-numeric:normal;font-variant-alternates:normal;font-feature-settings:normal;text-indent:0;text-align:start;text-decoration:none;text-decoration-line:none;text-decoration-style:solid;text-decoration-color:#000000;letter-spacing:normal;word-spacing:normal;text-transform:none;writing-mode:lr-tb;direction:ltr;text-orientation:mixed;dominant-baseline:auto;baseline-shift:baseline;text-anchor:start;white-space:normal;shape-padding:0;clip-rule:evenodd;display:inline;overflow:visible;visibility:visible;opacity:1;isolation:auto;mix-blend-mode:normal;color-interpolation:sRGB;color-interpolation-filters:linearRGB;solid-color:#000000;solid-opacity:1;vector-effect:none;fill:#000000;fill-opacity:1;fill-rule:nonzero;stroke:none;stroke-width:5.99999952;stroke-linecap:round;stroke-linejoin:round;stroke-miterlimit:1.41420996;stroke-dasharray:none;stroke-dashoffset:0;stroke-opacity:1;paint-order:normal;color-rendering:auto;image-rendering:auto;shape-rendering:auto;text-rendering:auto;enable-background:accumulate"
       d="m 337.19141,319.91016 c -10.50293,0.22028 -18.92226,8.93914 -18.77539,19.44336 0.14686,10.50421 8.80555,18.98359 19.31054,18.91015 10.50497,-0.0734 19.04491,-8.67446 19.04492,-19.17969 a 3.0002998,3.0002998 0 0 0 -0.01,-0.2832 3.0002998,3.0002998 0 0 0 0.002,-0.25195 c -0.29369,-10.50114 -9.06933,-18.85896 -19.57226,-18.63867 z m 0.125,5.99804 c 7.27583,-0.1526 13.24772,5.53401 13.45117,12.8086 a 3.0002998,3.0002998 0 0 0 0.01,0.1582 3.0002998,3.0002998 0 0 0 0,0.006 3.0002998,3.0002998 0 0 0 -0.006,0.20312 c 0,7.27742 -5.80869,13.12882 -13.08593,13.17969 -7.27726,0.0509 -13.1678,-5.71742 -13.26953,-12.99414 -0.10174,-7.27672 5.62456,-13.20873 12.90039,-13.36133 z"
       id="path1051-6"
       inkscape:connector-curvature="0" />
  </g>
</svg>
