<?xml version="1.0" encoding="UTF-8" standalone="no"?>
<!DOCTYPE svg PUBLIC "-//W3C//DTD SVG 1.1//EN" "http://www.w3.org/Graphics/SVG/1.1/DTD/svg11.dtd">
<svg width="100%" height="100%" viewBox="0 0 800 451" version="1.1" xmlns="http://www.w3.org/2000/svg" xmlns:xlink="http://www.w3.org/1999/xlink" xml:space="preserve" xmlns:serif="http://www.serif.com/" style="fill-rule:evenodd;clip-rule:evenodd;stroke-linejoin:round;stroke-miterlimit:2;">
    <g transform="matrix(1,0,0,1,-4226,-0)">
        <g id="stuff" transform="matrix(0.8,0,0,0.890414,4226,-294.727037)">
            <rect x="0" y="331" width="1000" height="506" style="fill:none;"/>
            <g transform="matrix(2.5,0,0,2.246146,324.97,514.814082)">
                <path d="M0,56.888L-20.289,56.888L-39.121,22.877L-39.121,40.882C-39.121,49.714 -46.272,56.873 -55.093,56.873C-61.582,56.873 -66.612,53.058 -69.062,48.634L-78.241,32.056L-78.241,56.859L-95.988,56.859L-95.988,0L-75.697,0L-56.868,34.01L-56.868,16.007C-56.868,7.175 -49.716,0.015 -40.895,0.015C-34.884,0.015 -29.652,3.34 -26.926,8.253L0,56.888Z" style="fill:rgb(0,38,105);fill-rule:nonzero;"/>
            </g>
            <g transform="matrix(2.5,0,0,2.246146,324.9725,642.592844)">
                <path d="M0,-56.858L0,0L-0.001,0L-17.746,-32.052L-17.746,-56.858L0,-56.858Z" style="fill:rgb(36,179,26);fill-rule:nonzero;"/>
            </g>
            <g transform="matrix(2.5,0,0,2.246146,380.0025,519.009883)">
                <path d="M0,22.743C1.735,23.766 3.703,24.278 5.905,24.278C7.399,24.278 8.758,24.053 9.982,23.603C11.206,23.154 12.276,22.532 13.191,21.739C14.107,20.946 14.848,20.025 15.416,18.972C15.983,17.921 16.351,16.794 16.521,15.59L11.938,15.59C11.791,16.332 11.542,16.988 11.188,17.556C10.835,18.123 10.391,18.607 9.857,19.007C9.323,19.407 8.732,19.704 8.079,19.9C7.427,20.098 6.725,20.195 5.973,20.195C4.614,20.195 3.409,19.861 2.359,19.191C1.309,18.521 0.483,17.533 -0.117,16.221C-0.718,14.912 -1.019,13.301 -1.019,11.388C-1.019,9.474 -0.722,7.893 -0.127,6.571C0.468,5.25 1.294,4.249 2.349,3.568C3.404,2.889 4.619,2.548 5.989,2.548C6.753,2.548 7.466,2.652 8.129,2.861C8.791,3.07 9.384,3.379 9.907,3.789C10.429,4.2 10.866,4.697 11.221,5.281C11.575,5.867 11.813,6.541 11.938,7.304L16.521,7.304C16.33,5.909 15.934,4.664 15.333,3.568C14.731,2.472 13.959,1.545 13.016,0.785C12.072,0.024 10.996,-0.551 9.788,-0.945C8.581,-1.338 7.286,-1.535 5.904,-1.535C3.725,-1.535 1.768,-1.024 0.032,0C-1.703,1.023 -3.073,2.499 -4.079,4.429C-5.085,6.357 -5.587,8.677 -5.587,11.388C-5.587,14.099 -5.091,16.397 -4.097,18.321C-3.103,20.244 -1.737,21.718 -0.002,22.741L0,22.743Z" style="fill:rgb(0,38,105);fill-rule:nonzero;"/>
            </g>
            <g transform="matrix(2.5,0,0,2.246146,460.565,532.619283)">
                <path d="M0,17.038C1.348,16.228 2.393,15.091 3.134,13.631C3.875,12.168 4.246,10.47 4.246,8.535C4.246,6.601 3.875,4.883 3.134,3.415C2.393,1.948 1.348,0.809 0,-0C-1.347,-0.809 -2.943,-1.214 -4.785,-1.214C-6.627,-1.214 -8.223,-0.809 -9.57,-0C-10.918,0.809 -11.959,1.948 -12.696,3.415C-13.432,4.883 -13.8,6.591 -13.8,8.535C-13.8,10.48 -13.432,12.168 -12.696,13.631C-11.959,15.093 -10.918,16.228 -9.57,17.038C-8.223,17.847 -6.627,18.252 -4.785,18.252C-2.943,18.252 -1.347,17.847 0,17.038M-8.804,11.64C-9.136,10.707 -9.302,9.672 -9.302,8.535C-9.302,7.399 -9.136,6.331 -8.804,5.398C-8.474,4.465 -7.97,3.725 -7.296,3.18C-6.622,2.636 -5.786,2.363 -4.785,2.363C-3.784,2.363 -2.92,2.636 -2.258,3.18C-1.596,3.726 -1.098,4.465 -0.767,5.398C-0.435,6.331 -0.269,7.377 -0.269,8.535C-0.269,9.694 -0.435,10.705 -0.767,11.64C-1.099,12.573 -1.596,13.313 -2.258,13.858C-2.92,14.404 -3.763,14.675 -4.785,14.675C-5.807,14.675 -6.622,14.402 -7.296,13.858C-7.97,13.311 -8.472,12.573 -8.804,11.64" style="fill:rgb(0,38,105);fill-rule:nonzero;"/>
            </g>
            <g transform="matrix(-2.5,0,0,2.246146,965.6575,363.996599)">
                <rect x="190.916" y="67.818" width="4.431" height="25.136" style="fill:rgb(0,38,105);"/>
            </g>
            <g transform="matrix(-2.5,0,0,2.246146,1004.16,363.996599)">
                <rect x="198.616" y="67.818" width="4.432" height="25.136" style="fill:rgb(0,38,105);"/>
            </g>
            <g transform="matrix(2.5,0,0,2.246146,553.3,535.631365)">
                <path d="M0,14.356C0.725,13.54 1.221,12.587 1.491,11.497L-2.653,11.008C-2.856,11.548 -3.145,12 -3.521,12.365C-3.897,12.73 -4.346,13.004 -4.869,13.183C-5.391,13.362 -5.966,13.453 -6.596,13.453C-7.562,13.453 -8.406,13.239 -9.131,12.811C-9.856,12.383 -10.418,11.763 -10.815,10.947C-11.175,10.213 -11.371,9.343 -11.407,8.341L1.695,8.341L1.695,6.957C1.695,5.304 1.465,3.879 1.004,2.682C0.544,1.484 -0.088,0.497 -0.892,-0.28C-1.695,-1.056 -2.616,-1.629 -3.656,-2.001C-4.694,-2.373 -5.794,-2.557 -6.95,-2.557C-8.748,-2.557 -10.309,-2.145 -11.635,-1.325C-12.961,-0.504 -13.988,0.642 -14.718,2.109C-15.448,3.577 -15.814,5.284 -15.814,7.229C-15.814,9.174 -15.446,10.906 -14.71,12.357C-13.974,13.808 -12.92,14.93 -11.55,15.723C-10.179,16.516 -8.551,16.913 -6.663,16.913C-5.202,16.913 -3.907,16.69 -2.78,16.246C-1.651,15.802 -0.724,15.172 0,14.358L0,14.356ZM-9.359,1.578C-8.686,1.128 -7.871,0.903 -6.916,0.903C-5.961,0.903 -5.164,1.128 -4.523,1.578C-3.883,2.028 -3.401,2.649 -3.074,3.442C-2.841,4.009 -2.693,4.648 -2.627,5.357L-11.39,5.357C-11.333,4.648 -11.169,3.991 -10.893,3.391C-10.544,2.632 -10.033,2.027 -9.359,1.578" style="fill:rgb(0,38,105);fill-rule:nonzero;"/>
            </g>
            <g transform="matrix(-1.070391,-2.029853,-2.259261,0.961702,533.893106,510.451766)">
                <path d="M-6.977,0.562L-1.47,0.562L0.355,4.415L-5.6,3.469L-6.977,0.562Z" style="fill:rgb(0,38,105);fill-rule:nonzero;"/>
            </g>
            <g transform="matrix(2.5,0,0,2.246146,595.2575,531.65344)">
                <path d="M0,24.985C1.331,24.462 2.377,23.672 3.142,22.614C3.906,21.556 4.287,20.223 4.287,18.616L4.287,-0.549L-0.043,-0.549L-0.043,2.572L-0.28,2.572C-0.516,2.123 -0.847,1.636 -1.274,1.113C-1.701,0.59 -2.273,0.142 -2.993,-0.228C-3.712,-0.6 -4.621,-0.784 -5.722,-0.784C-7.171,-0.784 -8.486,-0.412 -9.664,0.33C-10.842,1.072 -11.779,2.157 -12.469,3.586C-13.159,5.014 -13.506,6.762 -13.506,8.832C-13.506,10.902 -13.161,12.583 -12.469,13.944C-11.777,15.304 -10.846,16.328 -9.672,17.014C-8.499,17.7 -7.193,18.042 -5.755,18.042C-4.665,18.042 -3.763,17.876 -3.05,17.543C-2.337,17.213 -1.762,16.806 -1.323,16.329C-0.884,15.852 -0.559,15.388 -0.345,14.937L-0.092,14.937L-0.092,18.498C-0.092,19.881 -0.505,20.878 -1.331,21.492C-2.158,22.106 -3.2,22.412 -4.457,22.412C-5.344,22.412 -6.08,22.29 -6.664,22.05C-7.249,21.808 -7.714,21.503 -8.062,21.138C-8.41,20.773 -8.675,20.404 -8.854,20.033L-12.831,21.012C-12.438,22.328 -11.555,23.45 -10.185,24.378C-8.815,25.305 -6.933,25.769 -4.541,25.769C-2.845,25.769 -1.331,25.508 0,24.985M-1.231,13.022C-2,14.041 -3.093,14.549 -4.508,14.549C-5.474,14.549 -6.291,14.311 -6.959,13.832C-7.628,13.355 -8.131,12.682 -8.468,11.816C-8.805,10.951 -8.974,9.944 -8.974,8.798C-8.974,7.651 -8.808,6.647 -8.476,5.752C-8.146,4.857 -7.648,4.153 -6.986,3.635C-6.323,3.118 -5.497,2.858 -4.509,2.858C-3.522,2.858 -2.746,3.105 -2.082,3.6C-1.42,4.096 -0.919,4.787 -0.582,5.675C-0.245,6.563 -0.076,7.603 -0.076,8.796C-0.076,10.596 -0.46,12.004 -1.229,13.022L-1.231,13.022Z" style="fill:rgb(0,38,105);fill-rule:nonzero;"/>
            </g>
            <g transform="matrix(2.5,0,0,2.246146,622.78,532.565375)">
                <path d="M0,17.088C1.371,17.881 2.999,18.278 4.887,18.278C6.348,18.278 7.643,18.055 8.77,17.611C9.899,17.167 10.826,16.537 11.551,15.723C12.275,14.907 12.772,13.954 13.041,12.863L8.897,12.375C8.695,12.914 8.406,13.367 8.029,13.732C7.653,14.097 7.204,14.37 6.682,14.55C6.159,14.729 5.584,14.819 4.955,14.819C3.989,14.819 3.144,14.605 2.419,14.178C1.695,13.75 1.133,13.13 0.735,12.314C0.375,11.58 0.18,10.71 0.143,9.708L13.245,9.708L13.245,8.324C13.245,6.671 13.015,5.246 12.555,4.048C12.095,2.85 11.462,1.863 10.658,1.087C9.855,0.31 8.935,-0.262 7.895,-0.634C6.856,-1.006 5.757,-1.19 4.6,-1.19C2.802,-1.19 1.241,-0.779 -0.085,0.042C-1.411,0.863 -2.438,2.008 -3.168,3.476C-3.897,4.943 -4.264,6.651 -4.264,8.596C-4.264,10.54 -3.896,12.273 -3.16,13.724C-2.423,15.175 -1.37,16.297 0,17.09L0,17.088ZM2.193,2.943C2.866,2.493 3.681,2.268 4.636,2.268C5.591,2.268 6.388,2.493 7.029,2.943C7.669,3.393 8.151,4.014 8.478,4.807C8.711,5.374 8.859,6.013 8.925,6.722L0.161,6.722C0.219,6.013 0.383,5.356 0.659,4.756C1.008,3.997 1.519,3.392 2.193,2.943Z" style="fill:rgb(0,38,105);fill-rule:nonzero;"/>
            </g>
            <g transform="matrix(2.5,0,0,2.246146,400.875,601.003202)">
                <path d="M0,11.269L-0.286,11.269L-7.735,-6.933L-13.312,-6.933L-13.312,18.202L-8.931,18.202L-8.931,0.895L-8.694,0.895L-1.803,18.118L1.466,18.118L8.441,0.927L8.643,0.927L8.643,18.202L13.108,18.202L13.108,-6.933L7.463,-6.933L0,11.269Z" style="fill:rgb(0,38,105);fill-rule:nonzero;"/>
            </g>
            <g transform="matrix(2.5,0,0,2.246146,474.7575,639.991807)">
                <path d="M0,-17.038C-1.347,-17.847 -2.943,-18.252 -4.785,-18.252C-6.627,-18.252 -8.222,-17.847 -9.57,-17.038C-10.917,-16.228 -11.959,-15.09 -12.695,-13.622C-13.431,-12.155 -13.799,-10.447 -13.799,-8.502C-13.799,-6.558 -13.431,-4.87 -12.695,-3.407C-11.959,-1.945 -10.917,-0.809 -9.57,0C-8.222,0.809 -6.627,1.214 -4.785,1.214C-2.943,1.214 -1.347,0.809 0,0C1.348,-0.809 2.393,-1.946 3.134,-3.407C3.875,-4.87 4.247,-6.568 4.247,-8.502C4.247,-10.437 3.875,-12.155 3.134,-13.622C2.393,-15.09 1.348,-16.228 0,-17.038M-0.765,-5.398C-1.097,-4.465 -1.594,-3.725 -2.256,-3.18C-2.918,-2.634 -3.761,-2.363 -4.783,-2.363C-5.805,-2.363 -6.62,-2.636 -7.294,-3.18C-7.968,-3.726 -8.47,-4.465 -8.802,-5.398C-9.134,-6.331 -9.3,-7.366 -9.3,-8.502C-9.3,-9.639 -9.134,-10.707 -8.802,-11.64C-8.472,-12.573 -7.968,-13.313 -7.294,-13.858C-6.62,-14.402 -5.784,-14.675 -4.783,-14.675C-3.782,-14.675 -2.918,-14.402 -2.256,-13.858C-1.594,-13.311 -1.096,-12.573 -0.765,-11.64C-0.433,-10.707 -0.267,-9.661 -0.267,-8.502C-0.267,-7.344 -0.433,-6.332 -0.765,-5.398" style="fill:rgb(0,38,105);fill-rule:nonzero;"/>
            </g>
            <g transform="matrix(2.5,0,0,2.246146,525.18,640.03673)">
                <path d="M0,-17.446C-0.966,-17.997 -2.1,-18.272 -3.403,-18.272C-4.817,-18.272 -5.984,-17.959 -6.899,-17.336C-7.815,-16.712 -8.487,-15.872 -8.912,-14.814L-9.131,-14.814L-9.131,-18.035L-13.479,-18.035L-13.479,0.826L-9.047,0.826L-9.047,-10.207C-9.047,-11.128 -8.876,-11.908 -8.533,-12.543C-8.191,-13.178 -7.718,-13.665 -7.118,-14.003C-6.517,-14.34 -5.83,-14.509 -5.054,-14.509C-3.909,-14.509 -3.01,-14.152 -2.358,-13.438C-1.707,-12.724 -1.38,-11.737 -1.38,-10.477L-1.38,0.826L3.052,0.826L3.052,-11.17C3.052,-12.677 2.786,-13.961 2.252,-15.024C1.718,-16.087 0.968,-16.893 0.002,-17.444L0,-17.446Z" style="fill:rgb(0,38,105);fill-rule:nonzero;"/>
            </g>
            <g transform="matrix(2.5,0,0,2.246146,561.83,597.966413)">
                <path d="M0,16.012C-0.237,16.046 -0.45,16.063 -0.641,16.063C-1.349,16.063 -1.865,15.885 -2.191,15.532C-2.516,15.178 -2.679,14.628 -2.679,13.886L-2.679,4.135L1.045,4.135L1.045,0.693L-2.679,0.693L-2.679,-3.795L-7.111,-3.795L-7.111,0.693L-9.756,0.693L-9.756,4.135L-7.111,4.135L-7.111,14.612C-7.111,16.221 -6.611,17.488 -5.61,18.416C-4.611,19.343 -3.234,19.807 -1.482,19.807C-0.999,19.807 -0.516,19.771 -0.033,19.697C0.45,19.623 0.927,19.515 1.4,19.368L0.642,15.893C0.452,15.938 0.238,15.977 0.001,16.012L0,16.012Z" style="fill:rgb(0,38,105);fill-rule:nonzero;"/>
            </g>
            <g transform="matrix(2.5,0,0,2.246146,622.025,641.892047)">
                <path d="M0,-19.098C-1.37,-19.098 -2.55,-18.782 -3.538,-18.154C-4.527,-17.523 -5.234,-16.686 -5.661,-15.64L-5.863,-15.64C-6.211,-16.707 -6.823,-17.551 -7.7,-18.17C-8.576,-18.789 -9.654,-19.098 -10.936,-19.098C-12.217,-19.098 -13.261,-18.792 -14.171,-18.178C-15.082,-17.565 -15.732,-16.719 -16.125,-15.64L-16.362,-15.64L-16.362,-18.861L-20.591,-18.861L-20.591,0L-16.159,0L-16.159,-11.472C-16.159,-12.237 -16.005,-12.912 -15.696,-13.496C-15.387,-14.08 -14.97,-14.536 -14.441,-14.863C-13.913,-15.189 -13.328,-15.352 -12.689,-15.352C-11.746,-15.352 -10.987,-15.062 -10.415,-14.483C-9.841,-13.904 -9.555,-13.126 -9.555,-12.147L-9.555,0L-5.174,0L-5.174,-11.775C-5.174,-12.821 -4.877,-13.679 -4.282,-14.348C-3.687,-15.018 -2.856,-15.352 -1.788,-15.352C-0.889,-15.352 -0.128,-15.079 0.495,-14.534C1.117,-13.988 1.43,-13.136 1.43,-11.977L1.43,0L5.878,0L5.878,-12.652C5.878,-14.755 5.331,-16.355 4.235,-17.451C3.14,-18.548 1.727,-19.096 -0.003,-19.096L0,-19.098Z" style="fill:rgb(0,38,105);fill-rule:nonzero;"/>
            </g>
            <g transform="matrix(2.5,0,0,2.246146,677.3775,639.991807)">
                <path d="M0,-17.038C-1.347,-17.847 -2.943,-18.252 -4.785,-18.252C-6.627,-18.252 -8.223,-17.847 -9.57,-17.038C-10.918,-16.228 -11.959,-15.09 -12.696,-13.622C-13.432,-12.155 -13.8,-10.447 -13.8,-8.502C-13.8,-6.558 -13.432,-4.87 -12.696,-3.407C-11.959,-1.945 -10.918,-0.809 -9.57,0C-8.223,0.809 -6.627,1.214 -4.785,1.214C-2.943,1.214 -1.347,0.809 0,0C1.347,-0.809 2.393,-1.946 3.134,-3.407C3.875,-4.87 4.246,-6.568 4.246,-8.502C4.246,-10.437 3.875,-12.155 3.134,-13.622C2.393,-15.09 1.347,-16.228 0,-17.038M-0.767,-5.398C-1.099,-4.465 -1.596,-3.725 -2.258,-3.18C-2.92,-2.634 -3.763,-2.363 -4.785,-2.363C-5.807,-2.363 -6.622,-2.636 -7.296,-3.18C-7.97,-3.726 -8.473,-4.465 -8.804,-5.398C-9.136,-6.331 -9.302,-7.366 -9.302,-8.502C-9.302,-9.639 -9.136,-10.707 -8.804,-11.64C-8.474,-12.573 -7.97,-13.313 -7.296,-13.858C-6.622,-14.402 -5.786,-14.675 -4.785,-14.675C-3.784,-14.675 -2.92,-14.402 -2.258,-13.858C-1.596,-13.311 -1.098,-12.573 -0.767,-11.64C-0.435,-10.707 -0.269,-9.661 -0.269,-8.502C-0.269,-7.344 -0.435,-6.332 -0.767,-5.398" style="fill:rgb(0,38,105);fill-rule:nonzero;"/>
            </g>
            <g transform="matrix(2.5,0,0,2.246146,716.97,641.87857)">
                <path d="M0,-19.11C-1.077,-19.11 -2.039,-18.815 -2.88,-18.225C-3.723,-17.634 -4.313,-16.789 -4.65,-15.686L-4.852,-15.686L-4.852,-18.858L-9.149,-18.858L-9.149,0.002L-4.717,0.002L-4.717,-11.065C-4.717,-11.874 -4.535,-12.583 -4.17,-13.19C-3.805,-13.798 -3.302,-14.276 -2.662,-14.625C-2.021,-14.974 -1.291,-15.148 -0.471,-15.148C-0.1,-15.148 0.286,-15.125 0.692,-15.081C1.097,-15.036 1.394,-14.979 1.585,-14.911L1.585,-18.993C1.382,-19.028 1.126,-19.056 0.817,-19.077C0.508,-19.1 0.235,-19.112 0,-19.112L0,-19.11Z" style="fill:rgb(0,38,105);fill-rule:nonzero;"/>
            </g>
            <g transform="matrix(2.5,0,0,2.246146,758.4425,637.610892)">
                <path d="M0,-14.915C-0.804,-15.691 -1.724,-16.264 -2.764,-16.636C-3.803,-17.008 -4.902,-17.192 -6.059,-17.192C-7.856,-17.192 -9.417,-16.781 -10.744,-15.96C-12.07,-15.139 -13.097,-13.994 -13.826,-12.526C-14.556,-11.059 -14.922,-9.351 -14.922,-7.406C-14.922,-5.462 -14.554,-3.729 -13.818,-2.278C-13.082,-0.827 -12.029,0.295 -10.658,1.088C-9.288,1.881 -7.659,2.277 -5.771,2.277C-4.31,2.277 -3.015,2.055 -1.888,1.611C-0.759,1.167 0.168,0.537 0.892,-0.278C1.617,-1.094 2.113,-2.046 2.383,-3.137L-1.762,-3.626C-1.964,-3.086 -2.253,-2.633 -2.629,-2.268C-3.006,-1.903 -3.454,-1.63 -3.977,-1.451C-4.499,-1.271 -5.074,-1.181 -5.704,-1.181C-6.67,-1.181 -7.515,-1.395 -8.239,-1.822C-8.964,-2.25 -9.526,-2.87 -9.924,-3.686C-10.283,-4.42 -10.479,-5.29 -10.515,-6.292L2.586,-6.292L2.586,-7.676C2.586,-9.329 2.356,-10.754 1.896,-11.952C1.436,-13.15 0.803,-14.137 0,-14.913L0,-14.915ZM-8.466,-13.059C-7.792,-13.508 -6.977,-13.734 -6.023,-13.734C-5.068,-13.734 -4.271,-13.508 -3.63,-13.059C-2.989,-12.608 -2.508,-11.988 -2.181,-11.195C-1.947,-10.628 -1.799,-9.989 -1.734,-9.28L-10.497,-9.28C-10.44,-9.989 -10.275,-10.646 -9.999,-11.246C-9.651,-12.005 -9.14,-12.61 -8.466,-13.059" style="fill:rgb(0,38,105);fill-rule:nonzero;"/>
            </g>
            <g transform="matrix(2.5,0,0,2.246146,804.5875,640.03673)">
                <path d="M0,-17.446C-0.966,-17.997 -2.1,-18.272 -3.403,-18.272C-4.818,-18.272 -5.984,-17.959 -6.9,-17.336C-7.815,-16.712 -8.487,-15.872 -8.913,-14.814L-9.131,-14.814L-9.131,-18.035L-13.479,-18.035L-13.479,0.826L-9.047,0.826L-9.047,-10.207C-9.047,-11.128 -8.876,-11.908 -8.533,-12.543C-8.191,-13.178 -7.718,-13.665 -7.118,-14.003C-6.517,-14.34 -5.83,-14.509 -5.054,-14.509C-3.909,-14.509 -3.01,-14.152 -2.358,-13.438C-1.707,-12.724 -1.38,-11.737 -1.38,-10.477L-1.38,0.826L3.052,0.826L3.052,-11.17C3.052,-12.677 2.786,-13.961 2.252,-15.024C1.718,-16.087 0.968,-16.893 0.002,-17.444L0,-17.446Z" style="fill:rgb(0,38,105);fill-rule:nonzero;"/>
            </g>
            <g transform="matrix(2.5,0,0,2.246146,835.025,633.035493)">
                <path d="M0,-10.844C0.68,-11.333 1.474,-11.578 2.384,-11.578C3.102,-11.578 3.724,-11.437 4.246,-11.157C4.769,-10.876 5.193,-10.494 5.518,-10.01C5.843,-9.527 6.062,-8.982 6.175,-8.373L10.421,-8.373C10.32,-9.734 9.919,-10.923 9.217,-11.942C8.515,-12.96 7.574,-13.75 6.394,-14.313C5.214,-14.875 3.855,-15.157 2.317,-15.157C0.486,-15.157 -1.104,-14.744 -2.452,-13.916C-3.799,-13.09 -4.839,-11.945 -5.569,-10.482C-6.298,-9.02 -6.665,-7.329 -6.665,-5.405C-6.665,-3.482 -6.305,-1.824 -5.587,-0.361C-4.869,1.101 -3.835,2.245 -2.486,3.072C-1.139,3.9 0.473,4.313 2.35,4.313C3.922,4.313 5.293,4.023 6.461,3.444C7.63,2.865 8.556,2.064 9.242,1.041C9.927,0.017 10.32,-1.164 10.421,-2.502L6.175,-2.502C5.985,-1.49 5.549,-0.697 4.869,-0.123C4.189,0.452 3.36,0.738 2.384,0.738C1.463,0.738 0.661,0.488 -0.025,-0.012C-0.71,-0.513 -1.237,-1.227 -1.609,-2.154C-1.98,-3.082 -2.164,-4.188 -2.164,-5.47C-2.164,-6.751 -1.973,-7.832 -1.591,-8.742C-1.209,-9.653 -0.679,-10.353 0.002,-10.843L0,-10.844Z" style="fill:rgb(0,38,105);fill-rule:nonzero;"/>
            </g>
            <g transform="matrix(2.5,0,0,2.246146,895.66,657.749839)">
                <path d="M0,-25.923L-4.348,-11.667L-4.55,-11.667L-8.88,-25.923L-13.581,-25.923L-6.773,-6.657L-7.145,-5.645C-7.527,-4.622 -8.035,-4.008 -8.67,-3.806C-9.304,-3.604 -10.071,-3.62 -10.97,-3.857L-11.189,-3.925L-12.234,-0.466C-11.92,-0.343 -11.507,-0.233 -10.995,-0.137C-10.484,-0.042 -9.925,0.001 -9.319,-0.011C-8.162,-0.011 -7.163,-0.2 -6.32,-0.577C-5.477,-0.953 -4.77,-1.5 -4.197,-2.214C-3.623,-2.928 -3.163,-3.785 -2.815,-4.787L4.734,-25.924L0,-25.924L0,-25.923Z" style="fill:rgb(0,38,105);fill-rule:nonzero;"/>
            </g>
        </g>
    </g>
</svg>
