<svg width="1920" height="1080" viewBox="0 0 1920 1080" fill="none" xmlns="http://www.w3.org/2000/svg">
<g clip-path="url(#clip0_14_1206)">
<rect width="1920" height="1080" fill="black"/>
<path d="M1920 0H0V1080H1920V0Z" stroke="black" stroke-width="2" stroke-miterlimit="2" stroke-linecap="round" stroke-linejoin="round"/>
<path fill-rule="evenodd" clip-rule="evenodd" d="M960 629.948V858.193H1249.32L1383.6 723.905H1488.38L1835.3 376.987H1920V0H1689.22L1421.05 268.174H1321.77L960 629.948Z" fill="white" fill-opacity="0.5"/>
<path fill-rule="evenodd" clip-rule="evenodd" d="M960 450.052V221.807H670.684L536.395 356.095H431.617L84.7 703.013H0V1080H230.781L498.955 811.826H598.226L960 450.052Z" fill="white" fill-opacity="0.5"/>
<path fill-rule="evenodd" clip-rule="evenodd" d="M720.273 996.462L535.599 811.788V778.967L437.888 681.256V647.17H604.884L789.131 831.417H824.133L943.461 950.745V996.462H720.273Z" stroke="white" stroke-width="2" stroke-miterlimit="2" stroke-linecap="round" stroke-linejoin="round"/>
<path fill-rule="evenodd" clip-rule="evenodd" d="M1286.84 792.631L1329.44 750.025H1351.81L1530.25 928.457H1561.03L1588.77 956.194V985.641H1462.91L1453.24 975.972H1393.54C1366.3 948.251 1320.98 903.597 1286.84 870.121V792.631Z" stroke="white" stroke-width="2" stroke-miterlimit="2" stroke-linecap="round" stroke-linejoin="round"/>
<path fill-rule="evenodd" clip-rule="evenodd" d="M128.533 763.832L244.597 879.895H286.107L366.206 959.995V985.641H143.375L96.0566 938.323V765.061L128.533 763.832Z" fill="white"/>
<path fill-rule="evenodd" clip-rule="evenodd" d="M1649.5 712.053V743.559L1742.23 836.291V881.365L1823.94 963.079V985.641H1689.86L1558.04 853.821H1516.08L1387.04 724.777V647.17H1481.08V665.951L1501.37 686.236H1623.68L1649.5 712.053Z" fill="white"/>
<path d="M30 30V351.5L52.5 374V879L30 901.5V1050.5" stroke="white"/>
<path d="M1889.5 1064L1889.5 762.5L1867 740L1867 235L1889.5 212.5L1889.5 63.5" stroke="white"/>
<path d="M30 30H1890" stroke="white"/>
<path d="M191 30L701 30" stroke="white" stroke-width="2"/>
<path d="M1867 581L1867 328" stroke="white" stroke-width="2"/>
<path d="M52 803L52 666" stroke="white" stroke-width="2"/>
<path d="M209.546 207.5L193.091 188L226 188L209.546 207.5Z" fill="white"/>
<path d="M209.5 208L218.593 218.5L200.407 218.5L209.5 208Z" fill="white"/>
<path fill-rule="evenodd" clip-rule="evenodd" d="M752 1046L762 1036H767.5L770 1038.5L767 1041.5H773L770 1038.5L772.5 1036H857L867 1046H903L913 1036H1006L1012 1042L1021.5 1032.5L1025.5 1036H1410.5L1421.5 1025H1437.5L1458.5 1046L1468.5 1036H1648.5L1652.5 1040L1647 1045.5H1658L1652.5 1040L1656.5 1036H1756.5L1774 1018.5L1780.5 1025H1827.5L1843 1040.5H1884L1892 1032.5H1920V1079.5H0V1036H146.5L149.5 1039L143 1045.5H156L149.5 1039L152.5 1036H253.5L271 1018.5L279 1026.5H324.5L339.5 1041.5H379.5L388.5 1032.5H481L490 1041.5L505 1026.5L511 1032.5H705.5L722 1016L752 1046ZM12 1039.5V1046.5H14V1039.5H12ZM34 1046.5H40V1040.5H34V1046.5ZM1497 1045.5H1499V1040.5H1497V1045.5ZM1500 1045.5H1501V1039.5H1500V1045.5ZM1515 1045.5H1517V1039.5H1515V1045.5ZM1537 1045.5H1542V1039.5H1537V1045.5ZM301 1038.5H303V1032.5H301V1038.5ZM318 1038.5H320V1036.5H318V1038.5ZM1804 1037.5H1806V1031.5H1804V1037.5ZM1820 1037.5H1822V1035.5H1820V1037.5ZM293 1033.5H294V1031.5H293V1033.5ZM318 1033.5H319V1031.5H318V1033.5ZM1796 1033.5H1798V1031.5H1796V1033.5ZM1820 1033.5H1822V1031.5H1820V1033.5Z" fill="white"/>
</g>
<defs>
<clipPath id="clip0_14_1206">
<rect width="1920" height="1080" fill="white"/>
</clipPath>
</defs>
</svg>
