<?xml version="1.0" ?>
<!DOCTYPE svg  PUBLIC '-//W3C//DTD SVG 1.1//EN'  'http://www.w3.org/Graphics/SVG/1.1/DTD/svg11.dtd'>
<!-- Uploaded to: SVG Repo, www.svgrepo.com, Generator: SVG Repo Mixer Tools -->
<svg width="800px" height="800px" viewBox="0 0 32 32" enable-background="new 0 0 32 32" id="Layer_1" version="1.1" xml:space="preserve" xmlns="http://www.w3.org/2000/svg" xmlns:xlink="http://www.w3.org/1999/xlink">
<g id="Responsive_Marketing">
<g id="QR_code">
<g>
<g>
<g>
<g>
<path d="M20.504,30h-9c-1.379,0-2.5-1.121-2.5-2.5v-20c0-1.379,1.121-2.5,2.5-2.5h9c1.379,0,2.5,1.121,2.5,2.5        v20C23.004,28.879,21.883,30,20.504,30z M11.504,6c-0.827,0-1.5,0.673-1.5,1.5v20c0,0.827,0.673,1.5,1.5,1.5h9        c0.827,0,1.5-0.673,1.5-1.5v-20c0-0.827-0.673-1.5-1.5-1.5H11.504z" fill="#263238"/>
</g>
</g>
</g>
<g>
<g>
<path d="M16.504,28h-1c-0.276,0-0.5-0.224-0.5-0.5s0.224-0.5,0.5-0.5h1c0.276,0,0.5,0.224,0.5,0.5       S16.78,28,16.504,28z" fill="#263238"/>
</g>
</g>
<g>
<g>
<path d="M22.004,9h-10.5c-0.276,0-0.5-0.224-0.5-0.5s0.224-0.5,0.5-0.5h10.5c0.276,0,0.5,0.224,0.5,0.5       S22.28,9,22.004,9z" fill="#263238"/>
</g>
</g>
<g>
<g>
<path d="M22.004,26h-10.5c-0.276,0-0.5-0.224-0.5-0.5s0.224-0.5,0.5-0.5h10.5c0.276,0,0.5,0.224,0.5,0.5       S22.28,26,22.004,26z" fill="#263238"/>
</g>
</g>
</g>
</g>
<g>
<path d="M28.004,16c-0.073,0-0.146-0.016-0.217-0.049c-0.946-0.455-2.258-0.829-3.341-0.954    c-0.274-0.032-0.471-0.28-0.439-0.555c0.032-0.274,0.287-0.465,0.555-0.439c1.185,0.137,2.62,0.548,3.659,1.046    c0.249,0.12,0.354,0.419,0.234,0.668C28.368,15.896,28.189,16,28.004,16z" fill="#263238"/>
<path d="M26.413,13.121c-0.618,0-1.272-0.042-1.968-0.125c-0.274-0.032-0.471-0.281-0.438-0.555    c0.033-0.275,0.301-0.475,0.555-0.438c2.105,0.249,3.78,0.103,5.262-0.471c0.257-0.096,0.547,0.029,0.646,0.287    c0.099,0.257-0.029,0.547-0.287,0.646C29.047,12.905,27.819,13.121,26.413,13.121z" fill="#263238"/>
<path d="M24.503,11c-0.249,0-0.465-0.187-0.495-0.44c-0.033-0.273,0.162-0.522,0.437-0.556    c2.371-0.287,4.127-1.164,5.694-2.845c0.187-0.201,0.504-0.212,0.706-0.024s0.213,0.504,0.024,0.706    c-1.738,1.865-3.684,2.839-6.306,3.155C24.544,10.999,24.523,11,24.503,11z" fill="#263238"/>
<path d="M24.504,9c-0.225,0-0.429-0.151-0.485-0.379c-0.066-0.268,0.096-0.539,0.364-0.606    c2.933-0.733,5.155-4.313,5.632-6.616c0.057-0.271,0.324-0.446,0.591-0.388c0.271,0.056,0.444,0.32,0.388,0.591    c-0.509,2.463-2.886,6.513-6.368,7.384C24.585,8.995,24.544,9,24.504,9z" fill="#263238"/>
</g>
<g>
<path d="M3.955,16c-0.186,0-0.364-0.104-0.451-0.283c-0.119-0.249-0.015-0.548,0.234-0.668    c1.166-0.56,2.676-0.885,3.7-1.004c0.27-0.029,0.522,0.164,0.555,0.439c0.031,0.274-0.165,0.522-0.439,0.555    c-0.901,0.104-2.327,0.405-3.382,0.912C4.102,15.984,4.028,16,3.955,16z" fill="#263238"/>
<path d="M5.744,13.15c-1.454,0-2.78-0.229-3.959-0.684c-0.258-0.1-0.386-0.39-0.287-0.646    c0.1-0.259,0.39-0.385,0.646-0.287c1.501,0.58,3.281,0.751,5.303,0.513c0.254-0.038,0.521,0.161,0.555,0.438    c0.033,0.273-0.163,0.522-0.438,0.555C6.938,13.113,6.331,13.15,5.744,13.15z" fill="#263238"/>
<path d="M7.546,11.042c-0.021,0-0.041-0.001-0.061-0.004C4.897,10.726,2.881,9.71,1.139,7.841    C0.95,7.639,0.961,7.322,1.163,7.135c0.203-0.188,0.519-0.177,0.706,0.024c1.595,1.709,3.363,2.6,5.735,2.887    c0.274,0.033,0.47,0.282,0.437,0.556C8.011,10.855,7.795,11.042,7.546,11.042z" fill="#263238"/>
<path d="M7.545,9.042c-0.04,0-0.081-0.005-0.121-0.015C4.07,8.188,1.547,4.176,1.015,1.602    C0.958,1.331,1.132,1.066,1.402,1.011c0.265-0.059,0.535,0.116,0.591,0.388C2.461,3.657,4.75,7.327,7.666,8.057    C7.935,8.124,8.097,8.396,8.03,8.663C7.974,8.891,7.77,9.042,7.545,9.042z" fill="#263238"/>
</g>
<circle cx="18.504" cy="12.5" fill="#263238" r="0.5"/>
<circle cx="13.504" cy="12.5" fill="#263238" r="0.5"/>
<path d="M16.004,16.997c-1.28,0-2.561-0.487-3.535-1.462c-0.195-0.195-0.195-0.512,0-0.707s0.512-0.195,0.707,0   c1.559,1.559,4.098,1.559,5.656,0c0.195-0.195,0.512-0.195,0.707,0s0.195,0.512,0,0.707C18.564,16.51,17.284,16.997,16.004,16.997z   " fill="#263238"/>
</g>
</svg>