<?xml version="1.0" encoding="UTF-8"?>
<svg version="1.1" xmlns="http://www.w3.org/2000/svg" width="512" height="512">
<path d="M0 0 C155.1 0 310.2 0 470 0 C470 155.1 470 310.2 470 470 C343.28 470 216.56 470 86 470 C86 483.86 86 497.72 86 512 C82.45581471 510.58232589 80.31811924 509.69971694 77.40625 507.58203125 C76.76816406 507.13279297 76.13007812 506.68355469 75.47265625 506.22070312 C74.15198769 505.27792883 72.83688553 504.32731031 71.52734375 503.36914062 C67.85240539 500.76108989 67.85240539 500.76108989 63.54296875 499.8515625 C59.63191028 501.61784697 56.27832475 504.05016912 52.8125 506.5625 C51.38443762 507.58872114 49.95357899 508.61106585 48.51953125 509.62890625 C47.89151611 510.08338135 47.26350098 510.53785645 46.61645508 511.00610352 C45 512 45 512 43 512 C43 498.14 43 484.28 43 470 C28.81 470 14.62 470 0 470 C0 314.9 0 159.8 0 0 Z M43 43 C43 169.39 43 295.78 43 426 C145.96 426 248.92 426 355 426 C355 299.61 355 173.22 355 43 C252.04 43 149.08 43 43 43 Z M399 43 C399 75.67 399 108.34 399 142 C408.24 142 417.48 142 427 142 C427 109.33 427 76.66 427 43 C417.76 43 408.52 43 399 43 Z M399 185 C399 217.67 399 250.34 399 284 C408.24 284 417.48 284 427 284 C427 251.33 427 218.66 427 185 C417.76 185 408.52 185 399 185 Z M399 328 C399 360.34 399 392.68 399 426 C408.24 426 417.48 426 427 426 C427 393.66 427 361.32 427 328 C417.76 328 408.52 328 399 328 Z " fill="#bec1c6" transform="translate(21,0)"/>
<path d="M0 0 C5.28 -0.061875 10.56 -0.12375 16 -0.1875 C17.65 -0.21481201 19.3 -0.24212402 21 -0.27026367 C30.84219122 -0.36641036 38.874246 0.15734415 46.45703125 7.1328125 C50.15830997 11.61182826 51.73877664 16.87289553 52.4375 22.5625 C51.59058604 29.21682401 49.8506124 35.1493876 45 40 C44.34 40 43.68 40 43 40 C43.39380859 40.68626465 43.78761719 41.3725293 44.19335938 42.07958984 C45.96667367 45.17554477 47.73340991 48.27520366 49.5 51.375 C50.12003906 52.45523438 50.74007812 53.53546875 51.37890625 54.6484375 C52.25869141 56.1953125 52.25869141 56.1953125 53.15625 57.7734375 C53.70087891 58.72653809 54.24550781 59.67963867 54.80664062 60.66162109 C56 63 56 63 56 65 C49.07 65 42.14 65 35 65 C32.525 60.606875 32.525 60.606875 30 56.125 C29.47792969 55.20348145 28.95585937 54.28196289 28.41796875 53.33251953 C28.01191406 52.60661621 27.60585937 51.88071289 27.1875 51.1328125 C26.76855469 50.38918457 26.34960938 49.64555664 25.91796875 48.87939453 C25 47 25 47 25 45 C23.02 45 21.04 45 19 45 C19 51.6 19 58.2 19 65 C12.73 65 6.46 65 0 65 C0 43.55 0 22.1 0 0 Z M19 16 C19 20.29 19 24.58 19 29 C20.753125 29.061875 22.50625 29.12375 24.3125 29.1875 C25.29863281 29.22230469 26.28476563 29.25710937 27.30078125 29.29296875 C30.00830921 29.22533107 30.00830921 29.22533107 31.828125 27.671875 C33.67772302 25.03311516 33.44692969 23.12850781 33 20 C31.75609295 17.42044581 31.75609295 17.42044581 29 16 C25.59266913 15.66888007 22.4389618 15.81900201 19 16 Z " fill="#bec1c6" transform="translate(214,163)"/>
<path d="M0 0 C6.34198843 4.69820099 11.6012983 12.13053691 13 20 C13.83530078 31.63943716 12.90329053 40.5316722 5.375 49.8125 C0.01047766 55.49909497 -7.37176442 59.66148397 -15.2578125 60.23828125 C-23.0003142 60.38687472 -29.28054959 60.23272467 -36 56 C-36.69609375 55.5875 -37.3921875 55.175 -38.109375 54.75 C-44.89001965 50.26355843 -48.4032198 43.9919505 -51.375 36.5625 C-53.3058441 25.55668861 -51.67657943 16.01202863 -45.3125 6.6875 C-34.04337614 -7.17124576 -14.97204031 -8.80052965 0 0 Z M-28 14 C-32.84523934 19.10025193 -33.34809875 23.40533455 -33.28515625 30.203125 C-32.77718916 35.18537757 -30.65857735 38.22295284 -27.25 41.875 C-23.92540367 43.53729817 -20.68045264 44.12078706 -17 44 C-12.82236878 42.47355782 -9.69262082 40.55810608 -7 37 C-4.96452753 31.28129163 -4.18213209 25.8975017 -6 20 C-8.25469308 16.24693493 -10.78695516 13.66428646 -14.625 11.5625 C-19.90743136 10.31139784 -23.3095764 11.57103064 -28 14 Z " fill="#bec1c6" transform="translate(193,168)"/>
<path d="M0 0 C1.36125 0.8353125 1.36125 0.8353125 2.75 1.6875 C9.40476141 8.52711589 13.25134321 17.09815237 13.4375 26.625 C13.26960051 35.98786571 10.63130019 43.61136153 4.1875 50.5 C-3.51648077 57.41493246 -12.48583378 60.39494944 -22.8984375 59.84765625 C-32.74569606 58.39952999 -39.93850739 54.16569765 -46.26953125 46.5078125 C-51.82212082 38.46094454 -53.29648515 29.61464209 -52 20 C-49.39894983 10.147174 -44.14237073 3.07948858 -35.5625 -2.375 C-23.52366924 -7.86639648 -11.23329668 -7.05248325 0 0 Z M-30 15 C-33.98369879 20.31159838 -33.80349014 26.63321399 -33 33 C-31.38492402 36.55321253 -31.38492402 36.55321253 -29 39 C-28.484375 39.598125 -27.96875 40.19625 -27.4375 40.8125 C-24.03197418 43.62576046 -20.1860999 43.34884166 -16 43 C-11.93782345 41.54327685 -9.52639792 39.78959688 -7.125 36.1875 C-4.8384505 29.70894308 -4.49107911 24.38634409 -7 18 C-9.28829054 14.49128784 -11.16212027 12.59678208 -15 11 C-21.03715949 10.05600779 -25.35604133 10.7983231 -30 15 Z " fill="#bec1c6" transform="translate(187,247)"/>
<path d="M0 0 C6.52512659 4.66903934 11.71976713 11.30054903 13.25 19.3125 C14.4991443 31.07212113 13.06028765 39.84986947 5.57421875 49.46484375 C-1.29900126 56.93848298 -9.75085845 59.69230008 -19.75 60.3125 C-29.11135673 59.82046103 -36.97327949 56.51584605 -43.5 49.75 C-49.51286713 42.27946811 -52.64109905 33.86521764 -52.1640625 24.26171875 C-50.6686799 13.61064457 -45.76685064 6.18088409 -37.5 -0.5 C-25.89895904 -8.21664747 -11.49321894 -7.08909471 0 0 Z M-29.75 15.3125 C-33.542772 20.49595507 -33.43119413 26.13572624 -32.75 32.3125 C-31.20477005 36.56188236 -29.2043237 39.39791438 -25.75 42.3125 C-21.06065463 43.87561512 -17.23244475 43.83571579 -12.5625 42.1875 C-8.61181253 39.55370835 -6.45429588 36.87401447 -5.1796875 32.23828125 C-4.23578962 26.48452077 -5.02308353 21.48638334 -7.75 16.3125 C-11.32908715 12.82070766 -14.04016865 11.16026666 -19 11 C-23.65574932 11.06736615 -26.22820134 12.12611074 -29.75 15.3125 Z " fill="#bec1c6" transform="translate(339.75,246.6875)"/>
<path d="M0 0 C35.80445545 0 35.80445545 0 42.20703125 4.578125 C47.450207 10.03817177 50.11144067 14.78298296 50.375 22.5 C50.13438331 29.83880897 47.58825775 35.15308789 42.63671875 40.48828125 C35.93116562 46.68171577 27.5305255 45.22647413 19 45 C19 51.6 19 58.2 19 65 C12.73 65 6.46 65 0 65 C0 43.55 0 22.1 0 0 Z M19 16 C19 20.29 19 24.58 19 29 C21.413125 29.061875 21.413125 29.061875 23.875 29.125 C24.77992187 29.14820313 25.68484375 29.17140625 26.6171875 29.1953125 C29.18806994 29.24324836 29.18806994 29.24324836 31 27 C31.64626427 21.82555536 31.64626427 21.82555536 29.7734375 17.2578125 C27.4765112 15.62871499 26.09924705 15.69133708 23.3125 15.8125 C21.889375 15.874375 20.46625 15.93625 19 16 Z " fill="#bec1c6" transform="translate(87,163)"/>
<path d="M0 0 C14.85 0 29.7 0 45 0 C45 5.28 45 10.56 45 16 C36.42 16 27.84 16 19 16 C19 18.97 19 21.94 19 25 C25.93 25 32.86 25 40 25 C40 29.95 40 34.9 40 40 C33.07 40 26.14 40 19 40 C19 47.92 19 55.84 19 64 C12.73 64 6.46 64 0 64 C0 42.88 0 21.76 0 0 Z " fill="#bec1c6" transform="translate(87,242)"/>
<path d="M0 0 C18.15 0 36.3 0 55 0 C55 5.28 55 10.56 55 16 C48.73 16 42.46 16 36 16 C36 32.17 36 48.34 36 65 C30.06 65 24.12 65 18 65 C18 48.83 18 32.66 18 16 C12.06 16 6.12 16 0 16 C0 10.72 0 5.44 0 0 Z " fill="#bec1c6" transform="translate(271,163)"/>
<path d="M0 0 C6.27 0 12.54 0 19 0 C19 15.84 19 31.68 19 48 C28.24 48 37.48 48 47 48 C47 53.28 47 58.56 47 64 C31.49 64 15.98 64 0 64 C0 42.88 0 21.76 0 0 Z " fill="#bec1c6" transform="translate(208,242)"/>
<path d="M0 0 C5.94 0 11.88 0 18 0 C18 21.12 18 42.24 18 64 C12.06 64 6.12 64 0 64 C0 42.88 0 21.76 0 0 Z " fill="#bec1c6" transform="translate(262,242)"/>
</svg>
