<?xml version="1.0" encoding="utf-8"?>
<!-- Uploaded to: SVG Repo, www.svgrepo.com, Generator: SVG Repo Mixer Tools -->
<svg fill="#000000" height="800px" width="800px" version="1.2" baseProfile="tiny" id="Layer_1" xmlns="http://www.w3.org/2000/svg" xmlns:xlink="http://www.w3.org/1999/xlink"
	  viewBox="0 0 256 256" xml:space="preserve">
<path d="M127.2,93.6c19.9,0,36.1,16.2,36.1,36.1s-16.2,36.1-36.1,36.1s-36.1-16.2-36.1-36.1S107.3,93.6,127.2,93.6z M127.2,64.4
	c-36,0-65.2,29.2-65.2,65.2s29.2,65.2,65.2,65.2c15.7,0,30.1-5.5,41.5-14.9c1.9,1.2,4.2,2,6.8,2c6.9,0,12.6-5.5,12.6-12.6
	c0-3.4-1.4-6.4-3.4-8.7c5-9.2,8-19.9,8-31.1C192.3,93.6,163.1,64.4,127.2,64.4z M181.1,158.2c-1.8-0.9-3.6-1.5-5.8-1.5
	c-6.9,0-12.6,5.5-12.6,12.6c0,3,1.1,5.7,2.7,7.8c-10.5,8.5-23.8,13.7-38.4,13.7c-33.7,0-61.1-27.4-61.1-61.1S93.4,68.6,127,68.6
	s61.1,27.4,61.1,61.1C188.3,139.8,185.7,149.7,181.1,158.2z M127.3,36.3c-19.9,0-38.3,5.9-53.7,16.1c-3.1-3.1-7.3-4.9-12-4.9
	c-9.5,0-17,7.7-17,17c0,4.5,1.8,8.5,4.5,11.5c-10.8,15.1-17.3,33.5-17.3,53.4c0,51.4,42.8,93.1,95.4,93.1s95.4-41.8,95.4-93.1
	C222.7,78,180,36.3,127.3,36.3z M127.3,218.3c-50.4,0-91.4-40-91.4-89.1c0-18.8,6.1-36.2,16.4-50.7c2.7,1.9,5.9,2.8,9.5,2.8
	c9.5,0,17-7.7,17-17c0-3.2-0.9-6.4-2.6-8.9c14.6-9.6,32.2-15.3,51.1-15.3c50.4,0,91.4,40,91.4,89.1
	C218.7,178.5,177.7,218.3,127.3,218.3z M251,66.3c0-11.9-9.7-21.6-21.6-21.6c-4.9,0-9.3,1.6-13,4.3c-22.2-23.4-53.9-38-89.1-38
	C60.3,11,5.8,64.1,5.8,129.4s54.5,118.4,121.5,118.4s121.5-53.1,121.5-118.4c0-15.7-3.1-30.7-8.8-44.3C246.5,81.3,251,74.3,251,66.3
	z M244.8,129.4c0,63.1-52.7,114.4-117.5,114.4S9.9,192.4,9.9,129.4S62.6,15,127.3,15c33.9,0,64.6,14.2,86.1,36.6
	c-3.5,3.8-5.7,8.9-5.7,14.6c0,11.9,9.7,21.6,21.6,21.6c2.4,0,4.7-0.4,6.9-1.2C241.8,99.9,244.8,114.3,244.8,129.4z"/>
</svg>