<svg xmlns="http://www.w3.org/2000/svg" viewBox="0 0 1600 900" role="img" aria-label="Forêt au loin, sous la lune" xmlns:c2pa="http://c2pa.org/manifest"><metadata><c2pa:manifest>AAAWgmp1bWIAAAAeanVtZGMycGEAEQAQgAAAqgA4m3EDYzJwYQAAABZcanVtYgAAAEdqdW1kYzJtYQARABCAAACqADibcQN1cm46YzJwYTo1YmRjMDkyNy1kMGZmLTQzYWYtOGFkOS1jNzlmOTI0OTdkNjMAAAADl2p1bWIAAAApanVtZGMyYXMAEQAQgAAAqgA4m3EDYzJwYS5hc3NlcnRpb25zAAAAALxqdW1iAAAARGp1bWRjYm9yABEAEIAAAKoAOJtxE2MycGEuaW5ncmVkaWVudC52MwAAAAAYYzJzaIrO7eq9oOCSXr1qbKyzjzQAAABwY2JvcqNpZGM6Zm9ybWF0bWltYWdlL3N2Zyt4bWxqaW5zdGFuY2VJRHgseG1wOmlpZDozYjNkMmRkZi1iN2E0LTRkODUtOGY3My05NWVjYWY1NzFlYzVscmVsYXRpb25zaGlwaHBhcmVudE9mAAAB4mp1bWIAAABBanVtZGNib3IAEQAQgAAAqgA4m3ETYzJwYS5hY3Rpb25zLnYyAAAAABhjMnNoq70ZSpBern7C/s1eIAjXZgAAAZljYm9yomdhY3Rpb25zgqJmYWN0aW9ua2MycGEub3BlbmVkanBhcmFtZXRlcnOha2luZ3JlZGllbnRzgaJjdXJseC1zZWxmI2p1bWJmPWMycGEuYXNzZXJ0aW9ucy9jMnBhLmluZ3JlZGllbnQudjNkaGFzaFggDS16jjLArmVctZfYpOaBL1Rv00Axbw5sfBeBgFOqiiukZmFjdGlvbngdY29tLmFudGhyb3BpYy5jbGF1ZGUucHJvdmlkZWRqcGFyYW1ldGVyc6F4H2NvbS5hbnRocm9waWMub3JpZ2luLWNvbmZpZGVuY2VndW5rbm93bmtkZXNjcmlwdGlvbnhmQ2xhdWRlIHByb3ZpZGVkIHRoaXMgZmlsZSBhdCB0aGUgcmVxdWVzdCBvZiBhIHVzZXIgYW5kIG1heSBoYXZlIGNyZWF0ZWQgb3IgbW9kaWZpZWQgdGhlIGZpbGUgY29udGVudHMubXNvZnR3YXJlQWdlbnShZG5hbWVmQ2xhdWRlcmFsbEFjdGlvbnNJbmNsdWRlZPUAAADIanVtYgAAAEBqdW1kY2JvcgARABCAAACqADibcRNjMnBhLmhhc2guZGF0YQAAAAAYYzJzaD3aeCQNoOYDmOjCFb1HuE0AAACAY2JvcqVjYWxnZnNoYTI1NmNwYWRNAAAAAAAAAAAAAAAAAGRoYXNoWCCDmqevgKUqQcbzpqOoB6/Gu7NNqa0tPc9m6xnv969EvmRuYW1lbmp1bWJmIG1hbmlmZXN0amV4Y2x1c2lvbnOBomVzdGFydBizZmxlbmd0aBkeBAAAAj5qdW1iAAAAJ2p1bWRjMmNsABEAEIAAAKoAOJtxA2MycGEuY2xhaW0udjIAAAACD2Nib3KlY2FsZ2ZzaGEyNTZpc2lnbmF0dXJleE1zZWxmI2p1bWJmPS9jMnBhL3VybjpjMnBhOjViZGMwOTI3LWQwZmYtNDNhZi04YWQ5LWM3OWY5MjQ5N2Q2My9jMnBhLnNpZ25hdHVyZWppbnN0YW5jZUlEeCx4bXA6aWlkOjVmYmYxYjkwLWZkNTgtNDMxZS1hOWFjLWYzYmQxNjFiMjA5N3JjcmVhdGVkX2Fzc2VydGlvbnODomN1cmx4LXNlbGYjanVtYmY9YzJwYS5hc3NlcnRpb25zL2MycGEuaW5ncmVkaWVudC52M2RoYXNoWCANLXqOMsCuZVy1l9ik5oEvVG/TQDFvDmx8F4GAU6qKK6JjdXJseCpzZWxmI2p1bWJmPWMycGEuYXNzZXJ0aW9ucy9jMnBhLmFjdGlvbnMudjJkaGFzaFggUxKQLRCHgMKRbeD/Y4ZdceIR8A1aOwOGftM9oRCNTWeiY3VybHgpc2VsZiNqdW1iZj1jMnBhLmFzc2VydGlvbnMvYzJwYS5oYXNoLmRhdGFkaGFzaFggQsGQiNCc48Ot57IYXwJtH0WVjZ7qJ/w/nNHy/yvA4gp0Y2xhaW1fZ2VuZXJhdG9yX2luZm+jZG5hbWVvQW50aHJvcGljIEZpbGVzZ3ZlcnNpb25lMS4wLjBrc3BlY1ZlcnNpb25lMi40LjAAABA4anVtYgAAAChqdW1kYzJjcwARABCAAACqADibcQNjMnBhLnNpZ25hdHVyZQAAABAIY2JvctKEWQISogEmGCFZAgowggIGMIIBjaADAgECAhRA5aAK7sI50L64g/oGQgU9Z1UTADAKBggqhkjOPQQDAzBJMRcwFQYDVQQKEw5BbnRocm9waWMsIFBCQzEuMCwGA1UEAxMlQW50aHJvcGljIENvbnRlbnQgQ3JlZGVudGlhbHMgUm9vdCBDQTAeFw0yNjA4MDcxODQzNTZaFw0yODA4MDYxOTQzNTZaMEQxFzAVBgNVBAoTDkFudGhyb3BpYywgUEJDMSkwJwYDVQQDEyBBbnRocm9waWMgQ2xhdWRlIENvbnRlbnQgU2lnbmluZzBZMBMGByqGSM49AgEGCCqGSM49AwEHA0IABJh6CmvLUBgFFNU0vUKlOVtE6djd17L5SuwX0LemFisBM3dkd/3cyjxFA3Qo5S46fX0/ihY0VZ7mfb9KF703t5OjWDBWMA4GA1UdDwEB/wQEAwIHgDAVBgNVHSUEDjAMBgorBgEEAYPoXgIBMAwGA1UdEwEB/wQCMAAwHwYDVR0jBBgwFoAUzlHiBIFOZFsj+OPEz5o+nMHXXMIwCgYIKoZIzj0EAwMDZwAwZAIwMXMdFJ4BetLLVY7ORuE9noqbbAZOZn/aArXyTwFAZfKrPzxF2vPoJNf1+UCdg1XGAjBwX1zd9WGqYkqmL5SFqw1QySjr1zJfpJM9+1rdDwSPLMOPOjKuiXjoU/pUUeG9RwmhY3BhZFkNngAAAAAAAAAAAAAAAAAAAAAAAAAAAAAAAAAAAAAAAAAAAAAAAAAAAAAAAAAAAAAAAAAAAAAAAAAAAAAAAAAAAAAAAAAAAAAAAAAAAAAAAAAAAAAAAAAAAAAAAAAAAAAAAAAAAAAAAAAAAAAAAAAAAAAAAAAAAAAAAAAAAAAAAAAAAAAAAAAAAAAAAAAAAAAAAAAAAAAAAAAAAAAAAAAAAAAAAAAAAAAAAAAAAAAAAAAAAAAAAAAAAAAAAAAAAAAAAAAAAAAAAAAAAAAAAAAAAAAAAAAAAAAAAAAAAAAAAAAAAAAAAAAAAAAAAAAAAAAAAAAAAAAAAAAAAAAAAAAAAAAAAAAAAAAAAAAAAAAAAAAAAAAAAAAAAAAAAAAAAAAAAAAAAAAAAAAAAAAAAAAAAAAAAAAAAAAAAAAAAAAAAAAAAAAAAAAAAAAAAAAAAAAAAAAAAAAAAAAAAAAAAAAAAAAAAAAAAAAAAAAAAAAAAAAAAAAAAAAAAAAAAAAAAAAAAAAAAAAAAAAAAAAAAAAAAAAAAAAAAAAAAAAAAAAAAAAAAAAAAAAAAAAAAAAAAAAAAAAAAAAAAAAAAAAAAAAAAAAAAAAAAAAAAAAAAAAAAAAAAAAAAAAAAAAAAAAAAAAAAAAAAAAAAAAAAAAAAAAAAAAAAAAAAAAAAAAAAAAAAAAAAAAAAAAAAAAAAAAAAAAAAAAAAAAAAAAAAAAAAAAAAAAAAAAAAAAAAAAAAAAAAAAAAAAAAAAAAAAAAAAAAAAAAAAAAAAAAAAAAAAAAAAAAAAAAAAAAAAAAAAAAAAAAAAAAAAAAAAAAAAAAAAAAAAAAAAAAAAAAAAAAAAAAAAAAAAAAAAAAAAAAAAAAAAAAAAAAAAAAAAAAAAAAAAAAAAAAAAAAAAAAAAAAAAAAAAAAAAAAAAAAAAAAAAAAAAAAAAAAAAAAAAAAAAAAAAAAAAAAAAAAAAAAAAAAAAAAAAAAAAAAAAAAAAAAAAAAAAAAAAAAAAAAAAAAAAAAAAAAAAAAAAAAAAAAAAAAAAAAAAAAAAAAAAAAAAAAAAAAAAAAAAAAAAAAAAAAAAAAAAAAAAAAAAAAAAAAAAAAAAAAAAAAAAAAAAAAAAAAAAAAAAAAAAAAAAAAAAAAAAAAAAAAAAAAAAAAAAAAAAAAAAAAAAAAAAAAAAAAAAAAAAAAAAAAAAAAAAAAAAAAAAAAAAAAAAAAAAAAAAAAAAAAAAAAAAAAAAAAAAAAAAAAAAAAAAAAAAAAAAAAAAAAAAAAAAAAAAAAAAAAAAAAAAAAAAAAAAAAAAAAAAAAAAAAAAAAAAAAAAAAAAAAAAAAAAAAAAAAAAAAAAAAAAAAAAAAAAAAAAAAAAAAAAAAAAAAAAAAAAAAAAAAAAAAAAAAAAAAAAAAAAAAAAAAAAAAAAAAAAAAAAAAAAAAAAAAAAAAAAAAAAAAAAAAAAAAAAAAAAAAAAAAAAAAAAAAAAAAAAAAAAAAAAAAAAAAAAAAAAAAAAAAAAAAAAAAAAAAAAAAAAAAAAAAAAAAAAAAAAAAAAAAAAAAAAAAAAAAAAAAAAAAAAAAAAAAAAAAAAAAAAAAAAAAAAAAAAAAAAAAAAAAAAAAAAAAAAAAAAAAAAAAAAAAAAAAAAAAAAAAAAAAAAAAAAAAAAAAAAAAAAAAAAAAAAAAAAAAAAAAAAAAAAAAAAAAAAAAAAAAAAAAAAAAAAAAAAAAAAAAAAAAAAAAAAAAAAAAAAAAAAAAAAAAAAAAAAAAAAAAAAAAAAAAAAAAAAAAAAAAAAAAAAAAAAAAAAAAAAAAAAAAAAAAAAAAAAAAAAAAAAAAAAAAAAAAAAAAAAAAAAAAAAAAAAAAAAAAAAAAAAAAAAAAAAAAAAAAAAAAAAAAAAAAAAAAAAAAAAAAAAAAAAAAAAAAAAAAAAAAAAAAAAAAAAAAAAAAAAAAAAAAAAAAAAAAAAAAAAAAAAAAAAAAAAAAAAAAAAAAAAAAAAAAAAAAAAAAAAAAAAAAAAAAAAAAAAAAAAAAAAAAAAAAAAAAAAAAAAAAAAAAAAAAAAAAAAAAAAAAAAAAAAAAAAAAAAAAAAAAAAAAAAAAAAAAAAAAAAAAAAAAAAAAAAAAAAAAAAAAAAAAAAAAAAAAAAAAAAAAAAAAAAAAAAAAAAAAAAAAAAAAAAAAAAAAAAAAAAAAAAAAAAAAAAAAAAAAAAAAAAAAAAAAAAAAAAAAAAAAAAAAAAAAAAAAAAAAAAAAAAAAAAAAAAAAAAAAAAAAAAAAAAAAAAAAAAAAAAAAAAAAAAAAAAAAAAAAAAAAAAAAAAAAAAAAAAAAAAAAAAAAAAAAAAAAAAAAAAAAAAAAAAAAAAAAAAAAAAAAAAAAAAAAAAAAAAAAAAAAAAAAAAAAAAAAAAAAAAAAAAAAAAAAAAAAAAAAAAAAAAAAAAAAAAAAAAAAAAAAAAAAAAAAAAAAAAAAAAAAAAAAAAAAAAAAAAAAAAAAAAAAAAAAAAAAAAAAAAAAAAAAAAAAAAAAAAAAAAAAAAAAAAAAAAAAAAAAAAAAAAAAAAAAAAAAAAAAAAAAAAAAAAAAAAAAAAAAAAAAAAAAAAAAAAAAAAAAAAAAAAAAAAAAAAAAAAAAAAAAAAAAAAAAAAAAAAAAAAAAAAAAAAAAAAAAAAAAAAAAAAAAAAAAAAAAAAAAAAAAAAAAAAAAAAAAAAAAAAAAAAAAAAAAAAAAAAAAAAAAAAAAAAAAAAAAAAAAAAAAAAAAAAAAAAAAAAAAAAAAAAAAAAAAAAAAAAAAAAAAAAAAAAAAAAAAAAAAAAAAAAAAAAAAAAAAAAAAAAAAAAAAAAAAAAAAAAAAAAAAAAAAAAAAAAAAAAAAAAAAAAAAAAAAAAAAAAAAAAAAAAAAAAAAAAAAAAAAAAAAAAAAAAAAAAAAAAAAAAAAAAAAAAAAAAAAAAAAAAAAAAAAAAAAAAAAAAAAAAAAAAAAAAAAAAAAAAAAAAAAAAAAAAAAAAAAAAAAAAAAAAAAAAAAAAAAAAAAAAAAAAAAAAAAAAAAAAAAAAAAAAAAAAAAAAAAAAAAAAAAAAAAAAAAAAAAAAAAAAAAAAAAAAAAAAAAAAAAAAAAAAAAAAAAAAAAAAAAAAAAAAAAAAAAAAAAAAAAAAAAAAAAAAAAAAAAAAAAAAAAAAAAAAAAAAAAAAAAAAAAAAAAAAAAAAAAAAAAAAAAAAAAAAAAAAAAAAAAAAAAAAAAAAAAAAAAAAAAAAAAAAAAAAAAAAAAAAAAAAAAAAAAAAAAAAAAAAAAAAAAAAAAAAAAAAAAAAAAAAAAAAAAAAAAAAAAAAAAAAAAAAAAAAAAAAAAAAAAAAAAAAAAAAAAAAAAAAAAAAAAAAAAAAAAAAAAAAAAAAAAAAAAAAAAAAAAAAAAAAAAAAAAAAAAAAAAAAAAAAAAAAAAAAAAAAAAAAAAAAAAAAAAAAAAAAAAAAAAAAAAAAAAAAAAAAAAAAAAAAAAAAAAAAAAAAAAAAAAAAAAAAAAAAAAAAAAAAAAAAAAAAAAAAAAAAAAAAAAAAAAAAAAAAAAAAAAAAAAAAAAAAAAAAAAAAAAAAAAAAAAAAAAAAAAAAAAAAAAAAAAAAAAAAAAAAAAAAAAAAAAAAAAAAAAAAAAAAAAAAAAAAAAAAAAAAAAAAAAAAAAAAAAAAAAAAAAAAAAAAAAAAAAAAAAAAAAAAAAAAAAAAAAAAAAAAAAAAAAAAAAAAAAAAAAAAAAAAAAAAAAAAAAAAAAAAAAAAAAAAAAAAAAAAAAAAAAAAAAAAAAAAAAAAAAAAAAAAAAAAAAAAAAAAAAAAAAAAAAAAAAAAAAAAAAAAAAAAAAAAAAAAAAAAAAAAAAAAAAAAAAAAAAAAAAAAAAAAAAAAAAAAAAAAAAAAAAAAAAAAAAAAAAAAAAAAAAAAAAAAAAAAAAAAAAAAAAAAAAAAAAAAAAAAAAAAAAAAAAAAAAAAAAAAAAAAAAAAAAAAAAAAAAAAAAAAAAAAAAAAAAAAAAAAAAAAAAAAAAAAAAAAAAAAAAAAAAAAAAAAAAAAAAAAAAAAAAAAAAAAAAAAAAAAAAAAAAAAAAAAAAAAAAAAAAAAAAAAAAAAAAAAAAAAAAAAAAAAAAAAAAAAAAAAAAAAAAAAAAAAAAAAAAAAAAAAAAAAAAAAAAAAAAAAAAAAAAAAAAAAAAAAAAAAAAAAAAAAAAAAAAAAAAAAAAAAAAAAAAAAAAAAAAAAAAAAAAAAAAAAAAAAAAAAAAAAAAAAAAAAAAAAAAAAAAAAAAAAAAAAAAAAAAAAAAAAAAAAAAAAAAAAAAAAAAAAAAAAAAAAAAAAAAAAAAAAAAAAAAAAAAAAAAAAAAAAAAAAAAAAAAAAAAAAAAAAAAAAAAAAAAAAAAAAAAAAAAAAAAAAAAAAAAAAAAAAAAAAAAAAAAAAAAAAAAAAAAAAAAAAAAAAAAAAAAAAAAAAAAAAAAAAAAAAAAAAAAAAAAAAAAAAAAAAAAAAAAAAAAAAAAAAAAAAAAAAAAAAAAAAAAAAAAAAAAAAAAAAAAAAAAAAAAAAAAAAAAAAAAAAAAAAAAAAAAAAAAAAAAAAAAAAAAAAAAAAAAAAAAAAAAAAAAAAAAAAAAAAAAAAAAAAAAAAAAAAAAAAAAAAAAAAAAPZYQCB+xM4U2ICYrMFey5/IfUTh0fHxtTzGzrjsRSA8Qji9NhINh8Ankzufxtl+rQYH6vg3h1erv+Y+xh4sP74zuJE=</c2pa:manifest></metadata><title>Forêt au loin, sous la lune</title><circle cx="1200" cy="220" r="90" fill="#E9E4D8" opacity="0.9"/><polygon points="178,339 125,621 232,621" fill="#2B2D33"/>
<rect x="172" y="621" width="12" height="279" fill="#2B2D33"/>
<polygon points="384,357 338,596 429,596" fill="#2B2D33"/>
<rect x="378" y="596" width="12" height="304" fill="#2B2D33"/>
<polygon points="1058,293 1006,568 1110,568" fill="#2B2D33"/>
<rect x="1052" y="568" width="12" height="332" fill="#2B2D33"/>
<polygon points="-2,314 -55,595 51,595" fill="#2B2D33"/>
<rect x="-8" y="595" width="12" height="305" fill="#2B2D33"/>
<polygon points="1246,415 1212,596 1280,596" fill="#2B2D33"/>
<rect x="1240" y="596" width="12" height="304" fill="#2B2D33"/>
<polygon points="1177,428 1137,636 1216,636" fill="#2B2D33"/>
<rect x="1171" y="636" width="12" height="264" fill="#2B2D33"/>
<polygon points="1482,378 1448,562 1517,562" fill="#2B2D33"/>
<rect x="1476" y="562" width="12" height="338" fill="#2B2D33"/>
<polygon points="870,298 815,590 926,590" fill="#2B2D33"/>
<rect x="864" y="590" width="12" height="310" fill="#2B2D33"/>
<polygon points="318,332 274,562 362,562" fill="#2B2D33"/>
<rect x="312" y="562" width="12" height="338" fill="#2B2D33"/>
<polygon points="327,367 283,600 371,600" fill="#2B2D33"/>
<rect x="321" y="600" width="12" height="300" fill="#2B2D33"/>
<polygon points="346,370 307,578 386,578" fill="#2B2D33"/>
<rect x="340" y="578" width="12" height="322" fill="#2B2D33"/>
<polygon points="731,347 691,562 772,562" fill="#2B2D33"/>
<rect x="725" y="562" width="12" height="338" fill="#2B2D33"/>
<polygon points="1374,365 1327,611 1421,611" fill="#2B2D33"/>
<rect x="1368" y="611" width="12" height="289" fill="#2B2D33"/>
<polygon points="266,330 209,629 323,629" fill="#2B2D33"/>
<rect x="260" y="629" width="12" height="271" fill="#2B2D33"/>
<polygon points="156,398 114,618 197,618" fill="#2B2D33"/>
<rect x="150" y="618" width="12" height="282" fill="#2B2D33"/>
<polygon points="1159,301 1103,594 1215,594" fill="#2B2D33"/>
<rect x="1153" y="594" width="12" height="306" fill="#2B2D33"/>
<polygon points="1361,324 1312,584 1411,584" fill="#2B2D33"/>
<rect x="1355" y="584" width="12" height="316" fill="#2B2D33"/>
<polygon points="949,342 895,628 1003,628" fill="#2B2D33"/>
<rect x="943" y="628" width="12" height="272" fill="#2B2D33"/>
<polygon points="809,312 761,563 857,563" fill="#2B2D33"/>
<rect x="803" y="563" width="12" height="337" fill="#2B2D33"/>
<polygon points="363,317 310,593 415,593" fill="#2B2D33"/>
<rect x="357" y="593" width="12" height="307" fill="#2B2D33"/>
<polygon points="244,370 197,616 291,616" fill="#2B2D33"/>
<rect x="238" y="616" width="12" height="284" fill="#2B2D33"/>
<polygon points="1097,370 1054,595 1139,595" fill="#2B2D33"/>
<rect x="1091" y="595" width="12" height="305" fill="#2B2D33"/>
<polygon points="814,328 762,602 866,602" fill="#2B2D33"/>
<rect x="808" y="602" width="12" height="298" fill="#2B2D33"/>
<polygon points="619,324 573,562 664,562" fill="#2B2D33"/>
<rect x="613" y="562" width="12" height="338" fill="#2B2D33"/>
<polygon points="24,374 -26,639 74,639" fill="#2B2D33"/>
<rect x="18" y="639" width="12" height="261" fill="#2B2D33"/>
<polygon points="958,346 915,574 1002,574" fill="#2B2D33"/>
<rect x="952" y="574" width="12" height="326" fill="#2B2D33"/>
<polygon points="804,324 747,622 860,622" fill="#2B2D33"/>
<rect x="798" y="622" width="12" height="278" fill="#2B2D33"/>
<polygon points="867,295 814,579 921,579" fill="#2B2D33"/>
<rect x="861" y="579" width="12" height="321" fill="#2B2D33"/>
<polygon points="823,312 767,606 879,606" fill="#2B2D33"/>
<rect x="817" y="606" width="12" height="294" fill="#2B2D33"/>
<polygon points="731,392 690,604 771,604" fill="#2B2D33"/>
<rect x="725" y="604" width="12" height="296" fill="#2B2D33"/>
<polygon points="1577,442 1543,623 1611,623" fill="#2B2D33"/>
<rect x="1571" y="623" width="12" height="277" fill="#2B2D33"/>
<polygon points="1345,333 1290,619 1399,619" fill="#2B2D33"/>
<rect x="1339" y="619" width="12" height="281" fill="#2B2D33"/>
<polygon points="1326,363 1280,605 1372,605" fill="#2B2D33"/>
<rect x="1320" y="605" width="12" height="295" fill="#2B2D33"/>
<polygon points="674,443 639,630 710,630" fill="#2B2D33"/>
<rect x="668" y="630" width="12" height="270" fill="#2B2D33"/>
<polygon points="919,396 880,600 958,600" fill="#2B2D33"/>
<rect x="913" y="600" width="12" height="300" fill="#2B2D33"/>
<polygon points="774,365 732,588 817,588" fill="#2B2D33"/>
<rect x="768" y="588" width="12" height="312" fill="#2B2D33"/>
<polygon points="865,354 817,609 914,609" fill="#2B2D33"/>
<rect x="859" y="609" width="12" height="291" fill="#2B2D33"/>
<polygon points="729,395 694,578 764,578" fill="#2B2D33"/>
<rect x="723" y="578" width="12" height="322" fill="#2B2D33"/>
<polygon points="251,379 204,629 299,629" fill="#2B2D33"/>
<rect x="245" y="629" width="12" height="271" fill="#2B2D33"/>
<polygon points="1307,350 1255,625 1360,625" fill="#2B2D33"/>
<rect x="1301" y="625" width="12" height="275" fill="#2B2D33"/><rect y="620" width="1600" height="280" fill="#2B2D33"/></svg>